<svg xmlns="http://www.w3.org/2000/svg" width="500" height="500" version="1.0" viewBox="0 0 375 375"><defs><clipPath id="a"><path d="M187.5 0C83.945 0 0 83.945 0 187.5S83.945 375 187.5 375 375 291.055 375 187.5 291.055 0 187.5 0m0 0"/></clipPath><clipPath id="c"><path d="M0 0h375v375H0Zm0 0"/></clipPath><clipPath id="d"><path d="M187.5 0C83.945 0 0 83.945 0 187.5S83.945 375 187.5 375 375 291.055 375 187.5 291.055 0 187.5 0m0 0"/></clipPath><clipPath id="b"><path d="M0 0h375v375H0z"/></clipPath><clipPath id="e"><path d="M37 222h16v43H37Zm0 0"/></clipPath><clipPath id="f"><path d="m4.559 139.547 298-78.824 34.906 131.96-298 78.829Zm0 0"/></clipPath><clipPath id="h"><path d="m4.559 139.547 298-78.824 34.906 131.96-298 78.829Zm0 0"/></clipPath><clipPath id="i"><path d="M50 172h32v44H50Zm0 0"/></clipPath><clipPath id="j"><path d="m4.559 139.547 298-78.824 34.906 131.96-298 78.829Zm0 0"/></clipPath><clipPath id="k"><path d="m4.559 139.547 298-78.824 34.906 131.96-298 78.829Zm0 0"/></clipPath><clipPath id="l"><path d="M76 128h44v45H76Zm0 0"/></clipPath><clipPath id="m"><path d="m4.559 139.547 298-78.824 34.906 131.96-298 78.829Zm0 0"/></clipPath><clipPath id="n"><path d="m4.559 139.547 298-78.824 34.906 131.96-298 78.829Zm0 0"/></clipPath><clipPath id="o"><path d="M117 100h45v40h-45Zm0 0"/></clipPath><clipPath id="p"><path d="m4.559 139.547 298-78.824 34.906 131.96-298 78.829Zm0 0"/></clipPath><clipPath id="q"><path d="m4.559 139.547 298-78.824 34.906 131.96-298 78.829Zm0 0"/></clipPath><clipPath id="r"><path d="M167 89h49v36h-49Zm0 0"/></clipPath><clipPath id="s"><path d="m4.559 139.547 298-78.824 34.906 131.96-298 78.829Zm0 0"/></clipPath><clipPath id="t"><path d="m4.559 139.547 298-78.824 34.906 131.96-298 78.829Zm0 0"/></clipPath><clipPath id="u"><path d="M209 89h59v49h-59Zm0 0"/></clipPath><clipPath id="v"><path d="m4.559 139.547 298-78.824 34.906 131.96-298 78.829Zm0 0"/></clipPath><clipPath id="w"><path d="m4.559 139.547 298-78.824 34.906 131.96-298 78.829Zm0 0"/></clipPath><clipPath id="x"><path d="M242 102h69v65h-69Zm0 0"/></clipPath><clipPath id="y"><path d="m4.559 139.547 298-78.824 34.906 131.96-298 78.829Zm0 0"/></clipPath><clipPath id="z"><path d="m4.559 139.547 298-78.824 34.906 131.96-298 78.829Zm0 0"/></clipPath><clipPath id="A"><path d="M265 138h66v50h-66Zm0 0"/></clipPath><clipPath id="B"><path d="m4.559 139.547 298-78.824 34.906 131.96-298 78.829Zm0 0"/></clipPath><clipPath id="C"><path d="m4.559 139.547 298-78.824 34.906 131.96-298 78.829Zm0 0"/></clipPath><clipPath id="D"><path d="M157 154h46v76h-46Zm0 0"/></clipPath><clipPath id="E"><path d="m4.559 139.547 298-78.824 34.906 131.96-298 78.829Zm0 0"/></clipPath><clipPath id="F"><path d="m4.559 139.547 298-78.824 34.906 131.96-298 78.829Zm0 0"/></clipPath><clipPath id="G"><path d="M149 222h18v18h-18Zm0 0"/></clipPath><clipPath id="H"><path d="m4.559 139.547 298-78.824 34.906 131.96-298 78.829Zm0 0"/></clipPath><clipPath id="I"><path d="m4.559 139.547 298-78.824 34.906 131.96-298 78.829Zm0 0"/></clipPath><clipPath id="J"><path d="M184 127h14v19h-14Zm0 0"/></clipPath><clipPath id="K"><path d="m4.559 139.547 298-78.824 34.906 131.96-298 78.829Zm0 0"/></clipPath><clipPath id="L"><path d="m4.559 139.547 298-78.824 34.906 131.96-298 78.829Zm0 0"/></clipPath><clipPath id="M"><path d="M203 131h18v22h-18Zm0 0"/></clipPath><clipPath id="N"><path d="m4.559 139.547 298-78.824 34.906 131.96-298 78.829Zm0 0"/></clipPath><clipPath id="O"><path d="m4.559 139.547 298-78.824 34.906 131.96-298 78.829Zm0 0"/></clipPath><clipPath id="P"><path d="M220 141h22v23h-22Zm0 0"/></clipPath><clipPath id="Q"><path d="m4.559 139.547 298-78.824 34.906 131.96-298 78.829Zm0 0"/></clipPath><clipPath id="R"><path d="m4.559 139.547 298-78.824 34.906 131.96-298 78.829Zm0 0"/></clipPath><clipPath id="S"><path d="M234 157h24v22h-24Zm0 0"/></clipPath><clipPath id="T"><path d="m4.559 139.547 298-78.824 34.906 131.96-298 78.829Zm0 0"/></clipPath><clipPath id="U"><path d="m4.559 139.547 298-78.824 34.906 131.96-298 78.829Zm0 0"/></clipPath><clipPath id="V"><path d="M243 177h26v20h-26Zm0 0"/></clipPath><clipPath id="W"><path d="m4.559 139.547 298-78.824 34.906 131.96-298 78.829Zm0 0"/></clipPath><clipPath id="X"><path d="m4.559 139.547 298-78.824 34.906 131.96-298 78.829Zm0 0"/></clipPath><clipPath id="Y"><path d="M39 128h136v137H39Zm0 0"/></clipPath><clipPath id="Z"><path d="m4.559 139.547 298-78.824 34.906 131.96-298 78.829Zm0 0"/></clipPath><clipPath id="aa"><path d="m4.559 139.547 298-78.824 34.906 131.96-298 78.829Zm0 0"/></clipPath></defs><g clip-path="url(#a)"><g clip-path="url(#b)"><g clip-path="url(#c)"><g clip-path="url(#d)"><path fill="#0d284a" d="M-82.5-82.5h540v540h-540z"/></g></g></g></g><g clip-path="url(#e)"><g clip-path="url(#f)"><g clip-path="url(#h)"><path fill="#1ca0e6" d="M52.984 223.023a240 240 0 0 0-15.101 41.84l-.164.043c3.191-14.504 6.168-28.527 10.46-42.32Zm0 0"/></g></g></g><g clip-path="url(#i)"><g clip-path="url(#j)"><g clip-path="url(#k)"><path fill="#1ca0e6" d="m72.074 172.496 8.977 5.871c-9.531 11.508-17.735 24.215-24.606 37.602l-5.906-.535a175 175 0 0 1 9.723-22.778 218 218 0 0 1 11.812-20.16m0 0"/></g></g></g><g clip-path="url(#l)"><g clip-path="url(#m)"><g clip-path="url(#n)"><path fill="#1ca0e6" d="m111.75 128.11 8.059 15.644c-12.618 8.027-23.938 17.871-33.93 29.012l-9.652-6.32a201.5 201.5 0 0 1 29.375-33.067 168 168 0 0 1 6.148-5.27m0 0"/></g></g></g><g clip-path="url(#o)"><g clip-path="url(#p)"><g clip-path="url(#q)"><path fill="#1ca0e6" d="M149.422 104.684a183 183 0 0 1 11.11-4.657l1.015 26.004a120.7 120.7 0 0 0-23.055 7.645q-6.374 2.858-12.379 6.285l-8.472-16.441a176 176 0 0 1 31.78-18.836m0 0"/></g></g></g><g clip-path="url(#r)"><g clip-path="url(#s)"><g clip-path="url(#t)"><path fill="#1ca0e6" d="m215.492 89.219-11.66 35.445c-11.516-1.945-23.402-1.852-35.008-.016l-1.062-27.183c15.402-5.078 31.562-8.008 47.73-8.246m0 0"/></g></g></g><g clip-path="url(#u)"><g clip-path="url(#v)"><g clip-path="url(#w)"><path fill="#1ca0e6" d="m267.672 98.996-30.461 38.73a72 72 0 0 0-17.086-8.82 93 93 0 0 0-10.187-3.011l12.046-36.625a132.6 132.6 0 0 1 31.399 4.668 106.5 106.5 0 0 1 14.289 5.058m0 0"/></g></g></g><g clip-path="url(#x)"><g clip-path="url(#y)"><g clip-path="url(#z)"><path fill="#1ca0e6" d="m310.707 133.043-48.379 33.809c-5.234-9.407-11.531-17.907-19.598-24.832l31.403-39.93c14.449 7.543 26.582 18.187 36.574 30.953m0 0"/></g></g></g><g clip-path="url(#A)"><g clip-path="url(#B)"><g clip-path="url(#C)"><path fill="#1ca0e6" d="m330.668 167.176-58.68 20.543c-1.972-5-4.078-9.903-6.394-14.602l49.277-34.445c5.348 7.598 10.004 15.84 14.016 24.539.168.351.847 1.863 1.781 3.965m0 0"/></g></g></g><g clip-path="url(#D)"><g clip-path="url(#E)"><g clip-path="url(#F)"><path fill="#1ca0e6" d="m157.2 225.363 45.433-70.75-39.031 74.473Zm0 0"/></g></g></g><g clip-path="url(#G)"><g clip-path="url(#H)"><g clip-path="url(#I)"><path fill="#1ca0e6" d="M166.594 230.816a8.7 8.7 0 0 1-.14 2.023q-.1.5-.25.985-.158.486-.368.95-.21.46-.477.898-.262.433-.578.832c-.21.27-.433.52-.676.762a9 9 0 0 1-.757.675 8.8 8.8 0 0 1-1.735 1.055 9 9 0 0 1-.945.367 10 10 0 0 1-.984.25 10 10 0 0 1-1.008.133 8 8 0 0 1-1.016.008 8.6 8.6 0 0 1-2.957-.68 9 9 0 0 1-.906-.457 9 9 0 0 1-1.625-1.219 9 9 0 0 1-1.285-1.566 8.6 8.6 0 0 1-1.157-2.805 8.8 8.8 0 0 1-.187-2.02q.013-.51.09-1.015c.047-.336.117-.664.207-.992q.13-.49.324-.965a8.2 8.2 0 0 1 .977-1.777q.297-.413.64-.79.345-.374.73-.706a8.8 8.8 0 0 1 1.684-1.13 8.7 8.7 0 0 1 2.906-.875q.504-.059 1.012-.054c.34 0 .68.024 1.016.063a8.8 8.8 0 0 1 1.969.488q.475.183.925.418a8.6 8.6 0 0 1 3.032 2.656 8.36 8.36 0 0 1 1.539 4.488m0 0"/></g></g></g><g clip-path="url(#J)"><g clip-path="url(#K)"><g clip-path="url(#L)"><path fill="#1ca0e6" d="M185.563 127.723q5.987.152 11.91 1.03l-3.047 16.942a80 80 0 0 0-9.778-1.476Zm0 0"/></g></g></g><g clip-path="url(#M)"><g clip-path="url(#N)"><g clip-path="url(#O)"><path fill="#1ca0e6" d="M209.29 131.348a86 86 0 0 1 11.448 4.242l-8.168 16.707a67 67 0 0 0-8.789-3.914Zm0 0"/></g></g></g><g clip-path="url(#P)"><g clip-path="url(#Q)"><g clip-path="url(#R)"><path fill="#1ca0e6" d="M231.52 141.457a86.4 86.4 0 0 1 9.867 7.375l-13.492 14.742a66.5 66.5 0 0 0-7.239-6.176Zm0 0"/></g></g></g><g clip-path="url(#S)"><g clip-path="url(#T)"><g clip-path="url(#U)"><path fill="#1ca0e6" d="M250.117 157.504a97 97 0 0 1 7.48 9.7l-18.03 11.46a76 76 0 0 0-5.356-7.953Zm0 0"/></g></g></g><g clip-path="url(#V)"><g clip-path="url(#W)"><g clip-path="url(#X)"><path fill="#1ca0e6" d="M263.816 177.664a114 114 0 0 1 5 11.031l-21.418 7.684a91 91 0 0 0-3.441-9.102Zm0 0"/></g></g></g><g clip-path="url(#Y)"><g clip-path="url(#Z)"><g clip-path="url(#aa)"><path fill="#1ca0e6" d="m167.977 128.66.007.02a95 95 0 0 0-13.168 2.574 104.5 104.5 0 0 0-12.527 4.316 115 115 0 0 0-11.746 5.766l-.719.398-.699.41-1.402.825c-.93.554-1.84 1.129-2.762 1.699-.906.594-1.816 1.164-2.707 1.766l-1.332.906-.668.457-.656.465a156 156 0 0 0-19.532 16.437 197 197 0 0 0-16.75 18.86 242 242 0 0 0-14.355 20.496 276 276 0 0 0-12.285 21.64 337 337 0 0 0-5.438 11.153 314 314 0 0 0-4.988 11.336 333 333 0 0 0-6.277 16.125l.722-.192a345 345 0 0 1 13.121-25.953q3-5.36 6.223-10.582a281 281 0 0 1 13.695-20.27A236 236 0 0 1 89.2 188.54a189 189 0 0 1 17.364-16.723 145.5 145.5 0 0 1 19.335-13.851l.633-.38.64-.366 1.278-.727c.856-.484 1.723-.941 2.578-1.41.871-.445 1.735-.902 2.61-1.336l1.316-.637.656-.32.66-.305a103 103 0 0 1 10.766-4.277 90 90 0 0 1 11.05-2.863 80 80 0 0 1 11.173-1.29l.008.02 5.332-.203-.813-15.8Zm0 0"/></g></g></g></svg>