<svg xmlns="http://www.w3.org/2000/svg" xmlns:xlink="http://www.w3.org/1999/xlink" width="650" zoomAndPan="magnify" viewBox="0 0 487.5 119.999999" height="160" preserveAspectRatio="xMidYMid meet" version="1.0"><defs><g/><clipPath id="3e86095186"><rect x="0" width="77" y="0" height="27"/></clipPath><clipPath id="b844c87c70"><path d="M 150 89 L 161 89 L 161 116 L 150 116 Z M 150 89 " clip-rule="nonzero"/></clipPath><clipPath id="2d29e1a9be"><path d="M 130.136719 37.363281 L 316.289062 -11.875 L 338.128906 70.695312 L 151.980469 119.9375 Z M 130.136719 37.363281 " clip-rule="nonzero"/></clipPath><clipPath id="f3a8218876"><path d="M 130.136719 37.363281 L 316.289062 -11.875 L 338.128906 70.695312 L 151.980469 119.9375 Z M 130.136719 37.363281 " clip-rule="nonzero"/></clipPath><clipPath id="a8969956df"><path d="M 158 57 L 178 57 L 178 86 L 158 86 Z M 158 57 " clip-rule="nonzero"/></clipPath><clipPath id="2c51712b3d"><path d="M 130.136719 37.363281 L 316.289062 -11.875 L 338.128906 70.695312 L 151.980469 119.9375 Z M 130.136719 37.363281 " clip-rule="nonzero"/></clipPath><clipPath id="3755ca4d87"><path d="M 130.136719 37.363281 L 316.289062 -11.875 L 338.128906 70.695312 L 151.980469 119.9375 Z M 130.136719 37.363281 " clip-rule="nonzero"/></clipPath><clipPath id="f4162fa774"><path d="M 174 30 L 203 30 L 203 59 L 174 59 Z M 174 30 " clip-rule="nonzero"/></clipPath><clipPath id="c4b5b67446"><path d="M 130.136719 37.363281 L 316.289062 -11.875 L 338.128906 70.695312 L 151.980469 119.9375 Z M 130.136719 37.363281 " clip-rule="nonzero"/></clipPath><clipPath id="23834fcc64"><path d="M 130.136719 37.363281 L 316.289062 -11.875 L 338.128906 70.695312 L 151.980469 119.9375 Z M 130.136719 37.363281 " clip-rule="nonzero"/></clipPath><clipPath id="d9b180ee70"><path d="M 200 12 L 229 12 L 229 38 L 200 38 Z M 200 12 " clip-rule="nonzero"/></clipPath><clipPath id="46d7c9afcb"><path d="M 130.136719 37.363281 L 316.289062 -11.875 L 338.128906 70.695312 L 151.980469 119.9375 Z M 130.136719 37.363281 " clip-rule="nonzero"/></clipPath><clipPath id="0dfe81ec4b"><path d="M 130.136719 37.363281 L 316.289062 -11.875 L 338.128906 70.695312 L 151.980469 119.9375 Z M 130.136719 37.363281 " clip-rule="nonzero"/></clipPath><clipPath id="afaabc278f"><path d="M 232 5 L 262 5 L 262 29 L 232 29 Z M 232 5 " clip-rule="nonzero"/></clipPath><clipPath id="b5ddd73250"><path d="M 130.136719 37.363281 L 316.289062 -11.875 L 338.128906 70.695312 L 151.980469 119.9375 Z M 130.136719 37.363281 " clip-rule="nonzero"/></clipPath><clipPath id="9e7e1127ea"><path d="M 130.136719 37.363281 L 316.289062 -11.875 L 338.128906 70.695312 L 151.980469 119.9375 Z M 130.136719 37.363281 " clip-rule="nonzero"/></clipPath><clipPath id="e79db2d258"><path d="M 258 5 L 295 5 L 295 37 L 258 37 Z M 258 5 " clip-rule="nonzero"/></clipPath><clipPath id="6a25fc4eda"><path d="M 130.136719 37.363281 L 316.289062 -11.875 L 338.128906 70.695312 L 151.980469 119.9375 Z M 130.136719 37.363281 " clip-rule="nonzero"/></clipPath><clipPath id="e07baca5e2"><path d="M 130.136719 37.363281 L 316.289062 -11.875 L 338.128906 70.695312 L 151.980469 119.9375 Z M 130.136719 37.363281 " clip-rule="nonzero"/></clipPath><clipPath id="7b33f67ff6"><path d="M 278 13 L 322 13 L 322 55 L 278 55 Z M 278 13 " clip-rule="nonzero"/></clipPath><clipPath id="ca0ac08a11"><path d="M 130.136719 37.363281 L 316.289062 -11.875 L 338.128906 70.695312 L 151.980469 119.9375 Z M 130.136719 37.363281 " clip-rule="nonzero"/></clipPath><clipPath id="79ec00c854"><path d="M 130.136719 37.363281 L 316.289062 -11.875 L 338.128906 70.695312 L 151.980469 119.9375 Z M 130.136719 37.363281 " clip-rule="nonzero"/></clipPath><clipPath id="a7c3205f58"><path d="M 293 36 L 334 36 L 334 68 L 293 68 Z M 293 36 " clip-rule="nonzero"/></clipPath><clipPath id="37f1804df2"><path d="M 130.136719 37.363281 L 316.289062 -11.875 L 338.128906 70.695312 L 151.980469 119.9375 Z M 130.136719 37.363281 " clip-rule="nonzero"/></clipPath><clipPath id="93d8e11d8b"><path d="M 130.136719 37.363281 L 316.289062 -11.875 L 338.128906 70.695312 L 151.980469 119.9375 Z M 130.136719 37.363281 " clip-rule="nonzero"/></clipPath><clipPath id="a565ac6d52"><path d="M 225 46 L 254 46 L 254 94 L 225 94 Z M 225 46 " clip-rule="nonzero"/></clipPath><clipPath id="09b9eaf50b"><path d="M 130.136719 37.363281 L 316.289062 -11.875 L 338.128906 70.695312 L 151.980469 119.9375 Z M 130.136719 37.363281 " clip-rule="nonzero"/></clipPath><clipPath id="a39d71a3f5"><path d="M 130.136719 37.363281 L 316.289062 -11.875 L 338.128906 70.695312 L 151.980469 119.9375 Z M 130.136719 37.363281 " clip-rule="nonzero"/></clipPath><clipPath id="b9cd507f74"><path d="M 220 89 L 232 89 L 232 100 L 220 100 Z M 220 89 " clip-rule="nonzero"/></clipPath><clipPath id="b5f9723473"><path d="M 130.136719 37.363281 L 316.289062 -11.875 L 338.128906 70.695312 L 151.980469 119.9375 Z M 130.136719 37.363281 " clip-rule="nonzero"/></clipPath><clipPath id="1b91cf78d7"><path d="M 130.136719 37.363281 L 316.289062 -11.875 L 338.128906 70.695312 L 151.980469 119.9375 Z M 130.136719 37.363281 " clip-rule="nonzero"/></clipPath><clipPath id="9e7b95ec64"><path d="M 242 29 L 251 29 L 251 42 L 242 42 Z M 242 29 " clip-rule="nonzero"/></clipPath><clipPath id="73a67deced"><path d="M 130.136719 37.363281 L 316.289062 -11.875 L 338.128906 70.695312 L 151.980469 119.9375 Z M 130.136719 37.363281 " clip-rule="nonzero"/></clipPath><clipPath id="a4b838bdd1"><path d="M 130.136719 37.363281 L 316.289062 -11.875 L 338.128906 70.695312 L 151.980469 119.9375 Z M 130.136719 37.363281 " clip-rule="nonzero"/></clipPath><clipPath id="19615854cf"><path d="M 254 32 L 266 32 L 266 46 L 254 46 Z M 254 32 " clip-rule="nonzero"/></clipPath><clipPath id="b9ee3e9e19"><path d="M 130.136719 37.363281 L 316.289062 -11.875 L 338.128906 70.695312 L 151.980469 119.9375 Z M 130.136719 37.363281 " clip-rule="nonzero"/></clipPath><clipPath id="65795d1017"><path d="M 130.136719 37.363281 L 316.289062 -11.875 L 338.128906 70.695312 L 151.980469 119.9375 Z M 130.136719 37.363281 " clip-rule="nonzero"/></clipPath><clipPath id="db4fb39cc7"><path d="M 265 38 L 279 38 L 279 53 L 265 53 Z M 265 38 " clip-rule="nonzero"/></clipPath><clipPath id="fa7e22d31c"><path d="M 130.136719 37.363281 L 316.289062 -11.875 L 338.128906 70.695312 L 151.980469 119.9375 Z M 130.136719 37.363281 " clip-rule="nonzero"/></clipPath><clipPath id="d2016c91e0"><path d="M 130.136719 37.363281 L 316.289062 -11.875 L 338.128906 70.695312 L 151.980469 119.9375 Z M 130.136719 37.363281 " clip-rule="nonzero"/></clipPath><clipPath id="363a03cd1e"><path d="M 273 48 L 289 48 L 289 62 L 273 62 Z M 273 48 " clip-rule="nonzero"/></clipPath><clipPath id="ae3a65aa35"><path d="M 130.136719 37.363281 L 316.289062 -11.875 L 338.128906 70.695312 L 151.980469 119.9375 Z M 130.136719 37.363281 " clip-rule="nonzero"/></clipPath><clipPath id="a3a320eec8"><path d="M 130.136719 37.363281 L 316.289062 -11.875 L 338.128906 70.695312 L 151.980469 119.9375 Z M 130.136719 37.363281 " clip-rule="nonzero"/></clipPath><clipPath id="2eaad3bdb9"><path d="M 279 61 L 296 61 L 296 73 L 279 73 Z M 279 61 " clip-rule="nonzero"/></clipPath><clipPath id="05a35bd00e"><path d="M 130.136719 37.363281 L 316.289062 -11.875 L 338.128906 70.695312 L 151.980469 119.9375 Z M 130.136719 37.363281 " clip-rule="nonzero"/></clipPath><clipPath id="c24dc8398d"><path d="M 130.136719 37.363281 L 316.289062 -11.875 L 338.128906 70.695312 L 151.980469 119.9375 Z M 130.136719 37.363281 " clip-rule="nonzero"/></clipPath><clipPath id="f8b60291b4"><path d="M 152 30 L 237 30 L 237 116 L 152 116 Z M 152 30 " clip-rule="nonzero"/></clipPath><clipPath id="a667cdf845"><path d="M 130.136719 37.363281 L 316.289062 -11.875 L 338.128906 70.695312 L 151.980469 119.9375 Z M 130.136719 37.363281 " clip-rule="nonzero"/></clipPath><clipPath id="d83c4e8b2c"><path d="M 130.136719 37.363281 L 316.289062 -11.875 L 338.128906 70.695312 L 151.980469 119.9375 Z M 130.136719 37.363281 " clip-rule="nonzero"/></clipPath></defs><g transform="matrix(1, 0, 0, 1, 209, 80)"><g clip-path="url(#3e86095186)"><g fill="#1a3252" fill-opacity="1"><g transform="translate(0.762432, 19.58638)"><g><path d="M 5.5625 0.125 C 4.707031 0.125 3.9375 -0.0195312 3.25 -0.3125 C 2.570312 -0.613281 2.035156 -1.039062 1.640625 -1.59375 C 1.253906 -2.144531 1.0625 -2.785156 1.0625 -3.515625 L 3.296875 -3.515625 C 3.335938 -2.960938 3.550781 -2.507812 3.9375 -2.15625 C 4.320312 -1.800781 4.863281 -1.625 5.5625 -1.625 C 6.28125 -1.625 6.835938 -1.796875 7.234375 -2.140625 C 7.640625 -2.492188 7.84375 -2.945312 7.84375 -3.5 C 7.84375 -3.925781 7.71875 -4.269531 7.46875 -4.53125 C 7.21875 -4.800781 6.90625 -5.007812 6.53125 -5.15625 C 6.164062 -5.300781 5.65625 -5.460938 5 -5.640625 C 4.164062 -5.859375 3.488281 -6.078125 2.96875 -6.296875 C 2.457031 -6.523438 2.015625 -6.875 1.640625 -7.34375 C 1.273438 -7.820312 1.09375 -8.460938 1.09375 -9.265625 C 1.09375 -9.992188 1.273438 -10.628906 1.640625 -11.171875 C 2.015625 -11.722656 2.53125 -12.144531 3.1875 -12.4375 C 3.84375 -12.726562 4.601562 -12.875 5.46875 -12.875 C 6.695312 -12.875 7.703125 -12.566406 8.484375 -11.953125 C 9.273438 -11.335938 9.71875 -10.492188 9.8125 -9.421875 L 7.5 -9.421875 C 7.46875 -9.890625 7.25 -10.285156 6.84375 -10.609375 C 6.4375 -10.941406 5.90625 -11.109375 5.25 -11.109375 C 4.65625 -11.109375 4.164062 -10.953125 3.78125 -10.640625 C 3.40625 -10.335938 3.21875 -9.898438 3.21875 -9.328125 C 3.21875 -8.941406 3.335938 -8.625 3.578125 -8.375 C 3.816406 -8.125 4.117188 -7.925781 4.484375 -7.78125 C 4.847656 -7.632812 5.347656 -7.472656 5.984375 -7.296875 C 6.828125 -7.066406 7.515625 -6.832031 8.046875 -6.59375 C 8.578125 -6.363281 9.023438 -6.007812 9.390625 -5.53125 C 9.765625 -5.050781 9.953125 -4.410156 9.953125 -3.609375 C 9.953125 -2.960938 9.773438 -2.351562 9.421875 -1.78125 C 9.078125 -1.207031 8.570312 -0.742188 7.90625 -0.390625 C 7.25 -0.046875 6.46875 0.125 5.5625 0.125 Z M 5.5625 0.125 "/></g></g></g><g fill="#1a3252" fill-opacity="1"><g transform="translate(11.352697, 19.58638)"><g><path d="M 5.75 0.171875 C 4.789062 0.171875 3.925781 -0.046875 3.15625 -0.484375 C 2.394531 -0.921875 1.789062 -1.53125 1.34375 -2.3125 C 0.90625 -3.101562 0.6875 -4.015625 0.6875 -5.046875 C 0.6875 -6.078125 0.910156 -6.988281 1.359375 -7.78125 C 1.816406 -8.570312 2.4375 -9.179688 3.21875 -9.609375 C 4 -10.035156 4.875 -10.25 5.84375 -10.25 C 6.800781 -10.25 7.671875 -10.035156 8.453125 -9.609375 C 9.234375 -9.179688 9.847656 -8.570312 10.296875 -7.78125 C 10.753906 -6.988281 10.984375 -6.078125 10.984375 -5.046875 C 10.984375 -4.023438 10.75 -3.117188 10.28125 -2.328125 C 9.820312 -1.535156 9.191406 -0.921875 8.390625 -0.484375 C 7.585938 -0.046875 6.707031 0.171875 5.75 0.171875 Z M 5.75 -1.640625 C 6.28125 -1.640625 6.78125 -1.769531 7.25 -2.03125 C 7.71875 -2.289062 8.097656 -2.675781 8.390625 -3.1875 C 8.691406 -3.695312 8.84375 -4.316406 8.84375 -5.046875 C 8.84375 -5.773438 8.703125 -6.394531 8.421875 -6.90625 C 8.140625 -7.414062 7.765625 -7.796875 7.296875 -8.046875 C 6.835938 -8.304688 6.335938 -8.4375 5.796875 -8.4375 C 5.265625 -8.4375 4.769531 -8.304688 4.3125 -8.046875 C 3.851562 -7.796875 3.488281 -7.414062 3.21875 -6.90625 C 2.945312 -6.394531 2.8125 -5.773438 2.8125 -5.046875 C 2.8125 -3.960938 3.085938 -3.125 3.640625 -2.53125 C 4.203125 -1.9375 4.90625 -1.640625 5.75 -1.640625 Z M 5.75 -1.640625 "/></g></g></g><g fill="#1a3252" fill-opacity="1"><g transform="translate(22.564855, 19.58638)"><g><path d="M 3.453125 -13.546875 L 3.453125 0 L 1.375 0 L 1.375 -13.546875 Z M 3.453125 -13.546875 "/></g></g></g><g fill="#1a3252" fill-opacity="1"><g transform="translate(26.936226, 19.58638)"><g><path d="M 0.671875 -5.09375 C 0.671875 -6.101562 0.878906 -7 1.296875 -7.78125 C 1.722656 -8.5625 2.296875 -9.164062 3.015625 -9.59375 C 3.742188 -10.03125 4.550781 -10.25 5.4375 -10.25 C 6.226562 -10.25 6.914062 -10.09375 7.5 -9.78125 C 8.09375 -9.46875 8.566406 -9.082031 8.921875 -8.625 L 8.921875 -10.078125 L 11.03125 -10.078125 L 11.03125 0 L 8.921875 0 L 8.921875 -1.5 C 8.566406 -1.019531 8.082031 -0.617188 7.46875 -0.296875 C 6.863281 0.015625 6.171875 0.171875 5.390625 0.171875 C 4.523438 0.171875 3.734375 -0.0507812 3.015625 -0.5 C 2.296875 -0.945312 1.722656 -1.566406 1.296875 -2.359375 C 0.878906 -3.160156 0.671875 -4.070312 0.671875 -5.09375 Z M 8.921875 -5.046875 C 8.921875 -5.742188 8.773438 -6.347656 8.484375 -6.859375 C 8.203125 -7.367188 7.828125 -7.757812 7.359375 -8.03125 C 6.898438 -8.300781 6.40625 -8.4375 5.875 -8.4375 C 5.332031 -8.4375 4.828125 -8.300781 4.359375 -8.03125 C 3.898438 -7.769531 3.523438 -7.382812 3.234375 -6.875 C 2.953125 -6.375 2.8125 -5.78125 2.8125 -5.09375 C 2.8125 -4.394531 2.953125 -3.78125 3.234375 -3.25 C 3.523438 -2.726562 3.90625 -2.328125 4.375 -2.046875 C 4.851562 -1.773438 5.351562 -1.640625 5.875 -1.640625 C 6.40625 -1.640625 6.898438 -1.773438 7.359375 -2.046875 C 7.828125 -2.316406 8.203125 -2.707031 8.484375 -3.21875 C 8.773438 -3.738281 8.921875 -4.347656 8.921875 -5.046875 Z M 8.921875 -5.046875 "/></g></g></g><g fill="#1a3252" fill-opacity="1"><g transform="translate(38.880018, 19.58638)"><g><path d="M 14.765625 -12.71875 L 14.765625 0 L 12.6875 0 L 12.6875 -8.703125 L 8.796875 0 L 7.359375 0 L 3.453125 -8.703125 L 3.453125 0 L 1.375 0 L 1.375 -12.71875 L 3.625 -12.71875 L 8.09375 -2.75 L 12.53125 -12.71875 Z M 14.765625 -12.71875 "/></g></g></g><g fill="#1a3252" fill-opacity="1"><g transform="translate(54.555147, 19.58638)"><g><path d="M 0.671875 -5.09375 C 0.671875 -6.101562 0.878906 -7 1.296875 -7.78125 C 1.722656 -8.5625 2.296875 -9.164062 3.015625 -9.59375 C 3.742188 -10.03125 4.550781 -10.25 5.4375 -10.25 C 6.226562 -10.25 6.914062 -10.09375 7.5 -9.78125 C 8.09375 -9.46875 8.566406 -9.082031 8.921875 -8.625 L 8.921875 -10.078125 L 11.03125 -10.078125 L 11.03125 0 L 8.921875 0 L 8.921875 -1.5 C 8.566406 -1.019531 8.082031 -0.617188 7.46875 -0.296875 C 6.863281 0.015625 6.171875 0.171875 5.390625 0.171875 C 4.523438 0.171875 3.734375 -0.0507812 3.015625 -0.5 C 2.296875 -0.945312 1.722656 -1.566406 1.296875 -2.359375 C 0.878906 -3.160156 0.671875 -4.070312 0.671875 -5.09375 Z M 8.921875 -5.046875 C 8.921875 -5.742188 8.773438 -6.347656 8.484375 -6.859375 C 8.203125 -7.367188 7.828125 -7.757812 7.359375 -8.03125 C 6.898438 -8.300781 6.40625 -8.4375 5.875 -8.4375 C 5.332031 -8.4375 4.828125 -8.300781 4.359375 -8.03125 C 3.898438 -7.769531 3.523438 -7.382812 3.234375 -6.875 C 2.953125 -6.375 2.8125 -5.78125 2.8125 -5.09375 C 2.8125 -4.394531 2.953125 -3.78125 3.234375 -3.25 C 3.523438 -2.726562 3.90625 -2.328125 4.375 -2.046875 C 4.851562 -1.773438 5.351562 -1.640625 5.875 -1.640625 C 6.40625 -1.640625 6.898438 -1.773438 7.359375 -2.046875 C 7.828125 -2.316406 8.203125 -2.707031 8.484375 -3.21875 C 8.773438 -3.738281 8.921875 -4.347656 8.921875 -5.046875 Z M 8.921875 -5.046875 "/></g></g></g><g fill="#1a3252" fill-opacity="1"><g transform="translate(66.498939, 19.58638)"><g><path d="M 5.6875 -5.109375 L 8.953125 0 L 6.59375 0 L 4.40625 -3.421875 L 2.359375 0 L 0.1875 0 L 3.4375 -4.953125 L 0.1875 -10.078125 L 2.546875 -10.078125 L 4.71875 -6.65625 L 6.765625 -10.078125 L 8.953125 -10.078125 Z M 5.6875 -5.109375 "/></g></g></g></g></g><g clip-path="url(#b844c87c70)"><g clip-path="url(#2d29e1a9be)"><g clip-path="url(#f3a8218876)"><path fill="#1ca0e6" d="M 160.378906 89.496094 C 156.425781 97.910156 153.285156 106.621094 150.949219 115.621094 L 150.84375 115.648438 C 152.839844 106.59375 154.699219 97.832031 157.378906 89.21875 Z M 160.378906 89.496094 " fill-opacity="1" fill-rule="nonzero"/></g></g></g><g clip-path="url(#a8969956df)"><g clip-path="url(#2c51712b3d)"><g clip-path="url(#3755ca4d87)"><path fill="#1ca0e6" d="M 172.300781 57.9375 L 177.90625 61.605469 C 171.953125 68.792969 166.832031 76.726562 162.542969 85.085938 L 158.851562 84.753906 C 160.539062 79.867188 162.566406 75.125 164.925781 70.527344 C 167.160156 66.199219 169.617188 62.003906 172.300781 57.9375 Z M 172.300781 57.9375 " fill-opacity="1" fill-rule="nonzero"/></g></g></g><g clip-path="url(#f4162fa774)"><g clip-path="url(#c4b5b67446)"><g clip-path="url(#23834fcc64)"><path fill="#1ca0e6" d="M 197.078125 30.21875 L 202.109375 39.992188 C 194.230469 45.003906 187.164062 51.152344 180.921875 58.109375 L 174.894531 54.160156 C 180.25 46.605469 186.367188 39.722656 193.238281 33.511719 C 194.492188 32.382812 195.773438 31.285156 197.078125 30.21875 Z M 197.078125 30.21875 " fill-opacity="1" fill-rule="nonzero"/></g></g></g><g clip-path="url(#d9b180ee70)"><g clip-path="url(#46d7c9afcb)"><g clip-path="url(#0dfe81ec4b)"><path fill="#1ca0e6" d="M 220.605469 15.589844 C 222.878906 14.546875 225.191406 13.578125 227.542969 12.683594 L 228.175781 28.921875 C 223.21875 30.03125 218.417969 31.621094 213.78125 33.699219 C 211.125 34.886719 208.550781 36.195312 206.050781 37.621094 L 200.757812 27.355469 C 206.960938 22.738281 213.578125 18.816406 220.605469 15.589844 Z M 220.605469 15.589844 " fill-opacity="1" fill-rule="nonzero"/></g></g></g><g clip-path="url(#afaabc278f)"><g clip-path="url(#b5ddd73250)"><g clip-path="url(#9e7e1127ea)"><path fill="#1ca0e6" d="M 261.863281 5.933594 L 254.582031 28.066406 C 247.390625 26.855469 239.96875 26.914062 232.722656 28.058594 L 232.058594 11.082031 C 241.675781 7.910156 251.769531 6.082031 261.863281 5.933594 Z M 261.863281 5.933594 " fill-opacity="1" fill-rule="nonzero"/></g></g></g><g clip-path="url(#e79db2d258)"><g clip-path="url(#6a25fc4eda)"><g clip-path="url(#e07baca5e2)"><path fill="#1ca0e6" d="M 294.449219 12.039062 L 275.429688 36.226562 C 272.117188 33.914062 268.5625 32.078125 264.757812 30.71875 C 262.671875 29.96875 260.554688 29.34375 258.398438 28.835938 L 265.917969 5.964844 C 272.570312 6.152344 279.105469 7.125 285.527344 8.882812 C 288.578125 9.722656 291.550781 10.773438 294.449219 12.039062 Z M 294.449219 12.039062 " fill-opacity="1" fill-rule="nonzero"/></g></g></g><g clip-path="url(#7b33f67ff6)"><g clip-path="url(#ca0ac08a11)"><g clip-path="url(#79ec00c854)"><path fill="#1ca0e6" d="M 321.324219 33.300781 L 291.113281 54.414062 C 287.84375 48.539062 283.914062 43.234375 278.875 38.90625 L 298.488281 13.972656 C 307.511719 18.683594 315.085938 25.328125 321.324219 33.300781 Z M 321.324219 33.300781 " fill-opacity="1" fill-rule="nonzero"/></g></g></g><g clip-path="url(#a7c3205f58)"><g clip-path="url(#37f1804df2)"><g clip-path="url(#93d8e11d8b)"><path fill="#1ca0e6" d="M 333.792969 54.617188 L 297.144531 67.445312 C 295.914062 64.324219 294.597656 61.261719 293.152344 58.328125 L 323.925781 36.816406 C 327.265625 41.5625 330.175781 46.710938 332.679688 52.140625 C 332.785156 52.363281 333.207031 53.304688 333.792969 54.617188 Z M 333.792969 54.617188 " fill-opacity="1" fill-rule="nonzero"/></g></g></g><g clip-path="url(#a565ac6d52)"><g clip-path="url(#09b9eaf50b)"><g clip-path="url(#a39d71a3f5)"><path fill="#1ca0e6" d="M 225.460938 90.953125 L 253.835938 46.773438 L 229.460938 93.28125 Z M 225.460938 90.953125 " fill-opacity="1" fill-rule="nonzero"/></g></g></g><g clip-path="url(#b9cd507f74)"><g clip-path="url(#b5f9723473)"><g clip-path="url(#1b91cf78d7)"><path fill="#1ca0e6" d="M 231.328125 94.359375 C 231.347656 94.785156 231.320312 95.207031 231.238281 95.625 C 231.160156 96.042969 231.03125 96.445312 230.855469 96.832031 C 230.679688 97.21875 230.460938 97.578125 230.195312 97.914062 C 229.933594 98.246094 229.636719 98.546875 229.300781 98.808594 C 228.964844 99.070312 228.605469 99.292969 228.21875 99.46875 C 227.832031 99.644531 227.429688 99.773438 227.011719 99.851562 C 226.59375 99.933594 226.171875 99.964844 225.75 99.941406 C 225.324219 99.921875 224.90625 99.851562 224.5 99.730469 C 224.09375 99.609375 223.703125 99.445312 223.335938 99.230469 C 222.96875 99.019531 222.628906 98.765625 222.324219 98.46875 C 222.015625 98.175781 221.746094 97.851562 221.519531 97.492188 C 221.289062 97.132812 221.105469 96.753906 220.96875 96.351562 C 220.828125 95.949219 220.742188 95.535156 220.703125 95.113281 C 220.664062 94.691406 220.671875 94.265625 220.734375 93.847656 C 220.796875 93.425781 220.90625 93.019531 221.066406 92.625 C 221.226562 92.230469 221.429688 91.859375 221.679688 91.515625 C 221.925781 91.167969 222.210938 90.859375 222.535156 90.582031 C 222.855469 90.304688 223.207031 90.066406 223.585938 89.875 C 223.964844 89.679688 224.359375 89.535156 224.773438 89.4375 C 225.1875 89.339844 225.609375 89.289062 226.03125 89.292969 C 226.457031 89.292969 226.878906 89.347656 227.289062 89.449219 C 227.703125 89.550781 228.097656 89.703125 228.472656 89.898438 C 228.851562 90.09375 229.199219 90.335938 229.519531 90.613281 C 229.839844 90.894531 230.121094 91.207031 230.367188 91.558594 C 230.957031 92.398438 231.28125 93.332031 231.328125 94.359375 Z M 231.328125 94.359375 " fill-opacity="1" fill-rule="nonzero"/></g></g></g><g clip-path="url(#9e7b95ec64)"><g clip-path="url(#73a67deced)"><g clip-path="url(#a4b838bdd1)"><path fill="#1ca0e6" d="M 243.175781 29.980469 C 245.667969 30.042969 248.144531 30.257812 250.613281 30.625 L 248.707031 41.203125 C 246.691406 40.769531 244.65625 40.460938 242.601562 40.28125 Z M 243.175781 29.980469 " fill-opacity="1" fill-rule="nonzero"/></g></g></g><g clip-path="url(#19615854cf)"><g clip-path="url(#b9ee3e9e19)"><g clip-path="url(#65795d1017)"><path fill="#1ca0e6" d="M 257.992188 32.242188 C 260.4375 32.957031 262.820312 33.839844 265.140625 34.894531 L 260.039062 45.324219 C 258.269531 44.378906 256.441406 43.566406 254.550781 42.878906 Z M 257.992188 32.242188 " fill-opacity="1" fill-rule="nonzero"/></g></g></g><g clip-path="url(#db4fb39cc7)"><g clip-path="url(#fa7e22d31c)"><g clip-path="url(#d2016c91e0)"><path fill="#1ca0e6" d="M 271.875 38.558594 C 274.039062 39.945312 276.09375 41.480469 278.035156 43.160156 L 269.609375 52.367188 C 268.195312 50.976562 266.6875 49.691406 265.089844 48.511719 Z M 271.875 38.558594 " fill-opacity="1" fill-rule="nonzero"/></g></g></g><g clip-path="url(#363a03cd1e)"><g clip-path="url(#ae3a65aa35)"><g clip-path="url(#a3a320eec8)"><path fill="#1ca0e6" d="M 283.488281 48.578125 C 285.175781 50.496094 286.730469 52.515625 288.160156 54.632812 L 276.898438 61.792969 C 275.886719 60.066406 274.773438 58.410156 273.554688 56.824219 Z M 283.488281 48.578125 " fill-opacity="1" fill-rule="nonzero"/></g></g></g><g clip-path="url(#2eaad3bdb9)"><g clip-path="url(#05a35bd00e)"><g clip-path="url(#c24dc8398d)"><path fill="#1ca0e6" d="M 292.042969 61.167969 C 293.207031 63.410156 294.246094 65.703125 295.167969 68.054688 L 281.789062 72.855469 C 281.175781 70.921875 280.457031 69.027344 279.640625 67.171875 Z M 292.042969 61.167969 " fill-opacity="1" fill-rule="nonzero"/></g></g></g><g clip-path="url(#f8b60291b4)"><g clip-path="url(#a667cdf845)"><g clip-path="url(#d83c4e8b2c)"><path fill="#1ca0e6" d="M 232.191406 30.5625 L 232.195312 30.574219 C 229.417969 30.917969 226.675781 31.453125 223.972656 32.183594 C 221.308594 32.917969 218.699219 33.816406 216.152344 34.878906 C 213.636719 35.941406 211.191406 37.140625 208.8125 38.480469 L 208.367188 38.730469 L 207.929688 38.984375 L 207.054688 39.5 C 206.472656 39.847656 205.902344 40.207031 205.328125 40.558594 C 204.765625 40.929688 204.195312 41.289062 203.640625 41.664062 L 202.804688 42.230469 L 202.390625 42.515625 L 201.980469 42.804688 C 197.632812 45.894531 193.566406 49.316406 189.78125 53.070312 C 186.042969 56.773438 182.558594 60.699219 179.320312 64.847656 C 176.113281 68.960938 173.125 73.226562 170.355469 77.648438 C 167.589844 82.046875 165.035156 86.550781 162.6875 91.164062 C 161.507812 93.464844 160.375 95.785156 159.289062 98.128906 C 158.203125 100.46875 157.164062 102.828125 156.175781 105.207031 C 154.777344 108.53125 153.472656 111.890625 152.253906 115.277344 L 152.707031 115.15625 C 154.148438 111.972656 155.671875 108.824219 157.269531 105.714844 C 158.441406 103.4375 159.652344 101.179688 160.898438 98.949219 C 162.148438 96.71875 163.445312 94.515625 164.785156 92.339844 C 167.457031 87.992188 170.308594 83.769531 173.339844 79.683594 C 176.355469 75.609375 179.574219 71.699219 182.996094 67.957031 C 186.386719 64.246094 190.003906 60.765625 193.839844 57.515625 C 197.628906 54.300781 201.652344 51.417969 205.914062 48.867188 L 206.308594 48.628906 L 206.710938 48.398438 L 207.507812 47.945312 C 208.039062 47.640625 208.582031 47.359375 209.117188 47.0625 C 209.660156 46.785156 210.203125 46.5 210.746094 46.230469 L 211.976562 45.632812 L 212.390625 45.441406 C 214.582031 44.425781 216.824219 43.535156 219.113281 42.773438 C 221.378906 42.027344 223.679688 41.433594 226.015625 40.984375 C 228.324219 40.550781 230.648438 40.285156 232.992188 40.179688 L 232.996094 40.191406 L 236.328125 40.066406 L 235.816406 30.195312 Z M 232.191406 30.5625 " fill-opacity="1" fill-rule="nonzero"/></g></g></g></svg>