<svg xmlns="http://www.w3.org/2000/svg" xmlns:xlink="http://www.w3.org/1999/xlink" width="500" zoomAndPan="magnify" viewBox="0 0 375 374.999991" height="500" preserveAspectRatio="xMidYMid meet" version="1.0"><defs><g/><clipPath id="8829d94e77"><rect x="0" width="149" y="0" height="52"/></clipPath><clipPath id="fe55b992f4"><path d="M 7 235 L 27 235 L 27 288 L 7 288 Z M 7 235 " clip-rule="nonzero"/></clipPath><clipPath id="c7fd9074ee"><path d="M -32.941406 133.535156 L 332.492188 36.871094 L 375.257812 198.5625 L 9.828125 295.222656 Z M -32.941406 133.535156 " clip-rule="nonzero"/></clipPath><clipPath id="4e5395fb32"><path d="M -32.941406 133.535156 L 332.492188 36.871094 L 375.257812 198.5625 L 9.828125 295.222656 Z M -32.941406 133.535156 " clip-rule="nonzero"/></clipPath><clipPath id="bb3411ab99"><path d="M 23 173 L 61 173 L 61 228 L 23 228 Z M 23 173 " clip-rule="nonzero"/></clipPath><clipPath id="c64dd936fa"><path d="M -32.941406 133.535156 L 332.492188 36.871094 L 375.257812 198.5625 L 9.828125 295.222656 Z M -32.941406 133.535156 " clip-rule="nonzero"/></clipPath><clipPath id="16e8182ae6"><path d="M -32.941406 133.535156 L 332.492188 36.871094 L 375.257812 198.5625 L 9.828125 295.222656 Z M -32.941406 133.535156 " clip-rule="nonzero"/></clipPath><clipPath id="9f896cad72"><path d="M 54 119 L 109 119 L 109 175 L 54 175 Z M 54 119 " clip-rule="nonzero"/></clipPath><clipPath id="abcd67a054"><path d="M -32.941406 133.535156 L 332.492188 36.871094 L 375.257812 198.5625 L 9.828125 295.222656 Z M -32.941406 133.535156 " clip-rule="nonzero"/></clipPath><clipPath id="f0240c3a0b"><path d="M -32.941406 133.535156 L 332.492188 36.871094 L 375.257812 198.5625 L 9.828125 295.222656 Z M -32.941406 133.535156 " clip-rule="nonzero"/></clipPath><clipPath id="df8edbb073"><path d="M 105 85 L 160 85 L 160 135 L 105 135 Z M 105 85 " clip-rule="nonzero"/></clipPath><clipPath id="8341e81b66"><path d="M -32.941406 133.535156 L 332.492188 36.871094 L 375.257812 198.5625 L 9.828125 295.222656 Z M -32.941406 133.535156 " clip-rule="nonzero"/></clipPath><clipPath id="10eafd0ea1"><path d="M -32.941406 133.535156 L 332.492188 36.871094 L 375.257812 198.5625 L 9.828125 295.222656 Z M -32.941406 133.535156 " clip-rule="nonzero"/></clipPath><clipPath id="7f386ee43a"><path d="M 167 71 L 226 71 L 226 116 L 167 116 Z M 167 71 " clip-rule="nonzero"/></clipPath><clipPath id="c718de7fd7"><path d="M -32.941406 133.535156 L 332.492188 36.871094 L 375.257812 198.5625 L 9.828125 295.222656 Z M -32.941406 133.535156 " clip-rule="nonzero"/></clipPath><clipPath id="d2b0296118"><path d="M -32.941406 133.535156 L 332.492188 36.871094 L 375.257812 198.5625 L 9.828125 295.222656 Z M -32.941406 133.535156 " clip-rule="nonzero"/></clipPath><clipPath id="8c49a15b99"><path d="M 218 71 L 290 71 L 290 132 L 218 132 Z M 218 71 " clip-rule="nonzero"/></clipPath><clipPath id="8d08f5cbe1"><path d="M -32.941406 133.535156 L 332.492188 36.871094 L 375.257812 198.5625 L 9.828125 295.222656 Z M -32.941406 133.535156 " clip-rule="nonzero"/></clipPath><clipPath id="b299041411"><path d="M -32.941406 133.535156 L 332.492188 36.871094 L 375.257812 198.5625 L 9.828125 295.222656 Z M -32.941406 133.535156 " clip-rule="nonzero"/></clipPath><clipPath id="64ea86febf"><path d="M 258 87 L 343 87 L 343 167 L 258 167 Z M 258 87 " clip-rule="nonzero"/></clipPath><clipPath id="1a9bb439b3"><path d="M -32.941406 133.535156 L 332.492188 36.871094 L 375.257812 198.5625 L 9.828125 295.222656 Z M -32.941406 133.535156 " clip-rule="nonzero"/></clipPath><clipPath id="3a92f2fb9b"><path d="M -32.941406 133.535156 L 332.492188 36.871094 L 375.257812 198.5625 L 9.828125 295.222656 Z M -32.941406 133.535156 " clip-rule="nonzero"/></clipPath><clipPath id="a72a27a9ad"><path d="M 286 132 L 367 132 L 367 193 L 286 193 Z M 286 132 " clip-rule="nonzero"/></clipPath><clipPath id="d678d2c348"><path d="M -32.941406 133.535156 L 332.492188 36.871094 L 375.257812 198.5625 L 9.828125 295.222656 Z M -32.941406 133.535156 " clip-rule="nonzero"/></clipPath><clipPath id="43d7b95d1c"><path d="M -32.941406 133.535156 L 332.492188 36.871094 L 375.257812 198.5625 L 9.828125 295.222656 Z M -32.941406 133.535156 " clip-rule="nonzero"/></clipPath><clipPath id="e23f2e3285"><path d="M 154 151 L 210 151 L 210 244 L 154 244 Z M 154 151 " clip-rule="nonzero"/></clipPath><clipPath id="55cf929b29"><path d="M -32.941406 133.535156 L 332.492188 36.871094 L 375.257812 198.5625 L 9.828125 295.222656 Z M -32.941406 133.535156 " clip-rule="nonzero"/></clipPath><clipPath id="7fdd9243f9"><path d="M -32.941406 133.535156 L 332.492188 36.871094 L 375.257812 198.5625 L 9.828125 295.222656 Z M -32.941406 133.535156 " clip-rule="nonzero"/></clipPath><clipPath id="e0c31f12f5"><path d="M 144 235 L 166 235 L 166 257 L 144 257 Z M 144 235 " clip-rule="nonzero"/></clipPath><clipPath id="735d24bdcf"><path d="M -32.941406 133.535156 L 332.492188 36.871094 L 375.257812 198.5625 L 9.828125 295.222656 Z M -32.941406 133.535156 " clip-rule="nonzero"/></clipPath><clipPath id="dcba59996c"><path d="M -32.941406 133.535156 L 332.492188 36.871094 L 375.257812 198.5625 L 9.828125 295.222656 Z M -32.941406 133.535156 " clip-rule="nonzero"/></clipPath><clipPath id="9b27fd401a"><path d="M 187 119 L 204 119 L 204 142 L 187 142 Z M 187 119 " clip-rule="nonzero"/></clipPath><clipPath id="39b985103f"><path d="M -32.941406 133.535156 L 332.492188 36.871094 L 375.257812 198.5625 L 9.828125 295.222656 Z M -32.941406 133.535156 " clip-rule="nonzero"/></clipPath><clipPath id="493eda0389"><path d="M -32.941406 133.535156 L 332.492188 36.871094 L 375.257812 198.5625 L 9.828125 295.222656 Z M -32.941406 133.535156 " clip-rule="nonzero"/></clipPath><clipPath id="9d53f3b10b"><path d="M 211 123 L 232 123 L 232 150 L 211 150 Z M 211 123 " clip-rule="nonzero"/></clipPath><clipPath id="591b0acd43"><path d="M -32.941406 133.535156 L 332.492188 36.871094 L 375.257812 198.5625 L 9.828125 295.222656 Z M -32.941406 133.535156 " clip-rule="nonzero"/></clipPath><clipPath id="da5ea1ca35"><path d="M -32.941406 133.535156 L 332.492188 36.871094 L 375.257812 198.5625 L 9.828125 295.222656 Z M -32.941406 133.535156 " clip-rule="nonzero"/></clipPath><clipPath id="f5b92a8536"><path d="M 231 135 L 258 135 L 258 163 L 231 163 Z M 231 135 " clip-rule="nonzero"/></clipPath><clipPath id="d7aa59ca9d"><path d="M -32.941406 133.535156 L 332.492188 36.871094 L 375.257812 198.5625 L 9.828125 295.222656 Z M -32.941406 133.535156 " clip-rule="nonzero"/></clipPath><clipPath id="9218d46bc6"><path d="M -32.941406 133.535156 L 332.492188 36.871094 L 375.257812 198.5625 L 9.828125 295.222656 Z M -32.941406 133.535156 " clip-rule="nonzero"/></clipPath><clipPath id="5542384faa"><path d="M 248 155 L 278 155 L 278 182 L 248 182 Z M 248 155 " clip-rule="nonzero"/></clipPath><clipPath id="58fbc57fd9"><path d="M -32.941406 133.535156 L 332.492188 36.871094 L 375.257812 198.5625 L 9.828125 295.222656 Z M -32.941406 133.535156 " clip-rule="nonzero"/></clipPath><clipPath id="7d7ca0a72a"><path d="M -32.941406 133.535156 L 332.492188 36.871094 L 375.257812 198.5625 L 9.828125 295.222656 Z M -32.941406 133.535156 " clip-rule="nonzero"/></clipPath><clipPath id="59032bfc96"><path d="M 260 180 L 291 180 L 291 204 L 260 204 Z M 260 180 " clip-rule="nonzero"/></clipPath><clipPath id="ff086728eb"><path d="M -32.941406 133.535156 L 332.492188 36.871094 L 375.257812 198.5625 L 9.828125 295.222656 Z M -32.941406 133.535156 " clip-rule="nonzero"/></clipPath><clipPath id="d6accafd50"><path d="M -32.941406 133.535156 L 332.492188 36.871094 L 375.257812 198.5625 L 9.828125 295.222656 Z M -32.941406 133.535156 " clip-rule="nonzero"/></clipPath><clipPath id="6f28862d54"><path d="M 10 119 L 176 119 L 176 287 L 10 287 Z M 10 119 " clip-rule="nonzero"/></clipPath><clipPath id="714a834617"><path d="M -32.941406 133.535156 L 332.492188 36.871094 L 375.257812 198.5625 L 9.828125 295.222656 Z M -32.941406 133.535156 " clip-rule="nonzero"/></clipPath><clipPath id="bda1ad8073"><path d="M -32.941406 133.535156 L 332.492188 36.871094 L 375.257812 198.5625 L 9.828125 295.222656 Z M -32.941406 133.535156 " clip-rule="nonzero"/></clipPath></defs><g transform="matrix(1, 0, 0, 1, 123, 217)"><g clip-path="url(#8829d94e77)"><g fill="#1a3252" fill-opacity="1"><g transform="translate(0.279924, 38.611852)"><g><path d="M 10.90625 0.25 C 9.226562 0.25 7.71875 -0.0390625 6.375 -0.625 C 5.039062 -1.207031 3.988281 -2.035156 3.21875 -3.109375 C 2.457031 -4.191406 2.078125 -5.453125 2.078125 -6.890625 L 6.453125 -6.890625 C 6.554688 -5.816406 6.984375 -4.929688 7.734375 -4.234375 C 8.484375 -3.535156 9.539062 -3.1875 10.90625 -3.1875 C 12.320312 -3.1875 13.421875 -3.523438 14.203125 -4.203125 C 14.992188 -4.890625 15.390625 -5.773438 15.390625 -6.859375 C 15.390625 -7.691406 15.144531 -8.367188 14.65625 -8.890625 C 14.164062 -9.421875 13.554688 -9.828125 12.828125 -10.109375 C 12.097656 -10.398438 11.085938 -10.710938 9.796875 -11.046875 C 8.171875 -11.484375 6.847656 -11.921875 5.828125 -12.359375 C 4.816406 -12.804688 3.953125 -13.492188 3.234375 -14.421875 C 2.515625 -15.359375 2.15625 -16.601562 2.15625 -18.15625 C 2.15625 -19.59375 2.515625 -20.847656 3.234375 -21.921875 C 3.953125 -23.003906 4.957031 -23.832031 6.25 -24.40625 C 7.539062 -24.976562 9.035156 -25.265625 10.734375 -25.265625 C 13.148438 -25.265625 15.128906 -24.660156 16.671875 -23.453125 C 18.210938 -22.242188 19.066406 -20.585938 19.234375 -18.484375 L 14.71875 -18.484375 C 14.644531 -19.390625 14.210938 -20.164062 13.421875 -20.8125 C 12.628906 -21.457031 11.585938 -21.78125 10.296875 -21.78125 C 9.128906 -21.78125 8.171875 -21.476562 7.421875 -20.875 C 6.679688 -20.28125 6.3125 -19.421875 6.3125 -18.296875 C 6.3125 -17.535156 6.546875 -16.910156 7.015625 -16.421875 C 7.484375 -15.929688 8.078125 -15.539062 8.796875 -15.25 C 9.515625 -14.96875 10.492188 -14.660156 11.734375 -14.328125 C 13.390625 -13.867188 14.734375 -13.410156 15.765625 -12.953125 C 16.804688 -12.503906 17.691406 -11.804688 18.421875 -10.859375 C 19.160156 -9.910156 19.53125 -8.648438 19.53125 -7.078125 C 19.53125 -5.804688 19.1875 -4.609375 18.5 -3.484375 C 17.820312 -2.359375 16.828125 -1.453125 15.515625 -0.765625 C 14.210938 -0.0859375 12.675781 0.25 10.90625 0.25 Z M 10.90625 0.25 "/></g></g></g><g fill="#1a3252" fill-opacity="1"><g transform="translate(21.057872, 38.611852)"><g><path d="M 11.265625 0.328125 C 9.398438 0.328125 7.710938 -0.09375 6.203125 -0.9375 C 4.703125 -1.789062 3.519531 -2.988281 2.65625 -4.53125 C 1.789062 -6.082031 1.359375 -7.875 1.359375 -9.90625 C 1.359375 -11.914062 1.800781 -13.695312 2.6875 -15.25 C 3.570312 -16.8125 4.78125 -18.007812 6.3125 -18.84375 C 7.84375 -19.675781 9.554688 -20.09375 11.453125 -20.09375 C 13.335938 -20.09375 15.046875 -19.675781 16.578125 -18.84375 C 18.109375 -18.007812 19.316406 -16.8125 20.203125 -15.25 C 21.085938 -13.695312 21.53125 -11.914062 21.53125 -9.90625 C 21.53125 -7.894531 21.078125 -6.109375 20.171875 -4.546875 C 19.265625 -2.992188 18.023438 -1.789062 16.453125 -0.9375 C 14.890625 -0.09375 13.160156 0.328125 11.265625 0.328125 Z M 11.265625 -3.234375 C 12.316406 -3.234375 13.300781 -3.484375 14.21875 -3.984375 C 15.144531 -4.484375 15.894531 -5.234375 16.46875 -6.234375 C 17.039062 -7.242188 17.328125 -8.46875 17.328125 -9.90625 C 17.328125 -11.34375 17.050781 -12.554688 16.5 -13.546875 C 15.957031 -14.535156 15.226562 -15.28125 14.3125 -15.78125 C 13.40625 -16.289062 12.425781 -16.546875 11.375 -16.546875 C 10.320312 -16.546875 9.347656 -16.289062 8.453125 -15.78125 C 7.554688 -15.28125 6.84375 -14.535156 6.3125 -13.546875 C 5.789062 -12.554688 5.53125 -11.34375 5.53125 -9.90625 C 5.53125 -7.78125 6.070312 -6.132812 7.15625 -4.96875 C 8.25 -3.8125 9.617188 -3.234375 11.265625 -3.234375 Z M 11.265625 -3.234375 "/></g></g></g><g fill="#1a3252" fill-opacity="1"><g transform="translate(43.055964, 38.611852)"><g><path d="M 6.78125 -26.5625 L 6.78125 0 L 2.6875 0 L 2.6875 -26.5625 Z M 6.78125 -26.5625 "/></g></g></g><g fill="#1a3252" fill-opacity="1"><g transform="translate(51.632533, 38.611852)"><g><path d="M 1.328125 -9.984375 C 1.328125 -11.960938 1.738281 -13.71875 2.5625 -15.25 C 3.382812 -16.78125 4.507812 -17.96875 5.9375 -18.8125 C 7.363281 -19.664062 8.9375 -20.09375 10.65625 -20.09375 C 12.21875 -20.09375 13.578125 -19.785156 14.734375 -19.171875 C 15.890625 -18.566406 16.816406 -17.8125 17.515625 -16.90625 L 17.515625 -19.78125 L 21.640625 -19.78125 L 21.640625 0 L 17.515625 0 L 17.515625 -2.9375 C 16.816406 -2.007812 15.867188 -1.234375 14.671875 -0.609375 C 13.484375 0.0117188 12.125 0.328125 10.59375 0.328125 C 8.894531 0.328125 7.335938 -0.109375 5.921875 -0.984375 C 4.503906 -1.859375 3.382812 -3.078125 2.5625 -4.640625 C 1.738281 -6.210938 1.328125 -7.992188 1.328125 -9.984375 Z M 17.515625 -9.90625 C 17.515625 -11.269531 17.234375 -12.453125 16.671875 -13.453125 C 16.109375 -14.460938 15.367188 -15.226562 14.453125 -15.75 C 13.546875 -16.28125 12.566406 -16.546875 11.515625 -16.546875 C 10.460938 -16.546875 9.484375 -16.285156 8.578125 -15.765625 C 7.671875 -15.253906 6.9375 -14.5 6.375 -13.5 C 5.8125 -12.507812 5.53125 -11.335938 5.53125 -9.984375 C 5.53125 -8.617188 5.8125 -7.421875 6.375 -6.390625 C 6.9375 -5.359375 7.675781 -4.570312 8.59375 -4.03125 C 9.519531 -3.5 10.492188 -3.234375 11.515625 -3.234375 C 12.566406 -3.234375 13.546875 -3.492188 14.453125 -4.015625 C 15.367188 -4.546875 16.109375 -5.316406 16.671875 -6.328125 C 17.234375 -7.347656 17.515625 -8.539062 17.515625 -9.90625 Z M 17.515625 -9.90625 "/></g></g></g><g fill="#1a3252" fill-opacity="1"><g transform="translate(75.066081, 38.611852)"><g><path d="M 28.96875 -24.9375 L 28.96875 0 L 24.875 0 L 24.875 -17.078125 L 17.265625 0 L 14.421875 0 L 6.78125 -17.078125 L 6.78125 0 L 2.6875 0 L 2.6875 -24.9375 L 7.109375 -24.9375 L 15.859375 -5.390625 L 24.578125 -24.9375 Z M 28.96875 -24.9375 "/></g></g></g><g fill="#1a3252" fill-opacity="1"><g transform="translate(105.820458, 38.611852)"><g><path d="M 1.328125 -9.984375 C 1.328125 -11.960938 1.738281 -13.71875 2.5625 -15.25 C 3.382812 -16.78125 4.507812 -17.96875 5.9375 -18.8125 C 7.363281 -19.664062 8.9375 -20.09375 10.65625 -20.09375 C 12.21875 -20.09375 13.578125 -19.785156 14.734375 -19.171875 C 15.890625 -18.566406 16.816406 -17.8125 17.515625 -16.90625 L 17.515625 -19.78125 L 21.640625 -19.78125 L 21.640625 0 L 17.515625 0 L 17.515625 -2.9375 C 16.816406 -2.007812 15.867188 -1.234375 14.671875 -0.609375 C 13.484375 0.0117188 12.125 0.328125 10.59375 0.328125 C 8.894531 0.328125 7.335938 -0.109375 5.921875 -0.984375 C 4.503906 -1.859375 3.382812 -3.078125 2.5625 -4.640625 C 1.738281 -6.210938 1.328125 -7.992188 1.328125 -9.984375 Z M 17.515625 -9.90625 C 17.515625 -11.269531 17.234375 -12.453125 16.671875 -13.453125 C 16.109375 -14.460938 15.367188 -15.226562 14.453125 -15.75 C 13.546875 -16.28125 12.566406 -16.546875 11.515625 -16.546875 C 10.460938 -16.546875 9.484375 -16.285156 8.578125 -15.765625 C 7.671875 -15.253906 6.9375 -14.5 6.375 -13.5 C 5.8125 -12.507812 5.53125 -11.335938 5.53125 -9.984375 C 5.53125 -8.617188 5.8125 -7.421875 6.375 -6.390625 C 6.9375 -5.359375 7.675781 -4.570312 8.59375 -4.03125 C 9.519531 -3.5 10.492188 -3.234375 11.515625 -3.234375 C 12.566406 -3.234375 13.546875 -3.492188 14.453125 -4.015625 C 15.367188 -4.546875 16.109375 -5.316406 16.671875 -6.328125 C 17.234375 -7.347656 17.515625 -8.539062 17.515625 -9.90625 Z M 17.515625 -9.90625 "/></g></g></g><g fill="#1a3252" fill-opacity="1"><g transform="translate(129.254006, 38.611852)"><g><path d="M 11.15625 -10.015625 L 17.546875 0 L 12.921875 0 L 8.65625 -6.71875 L 4.625 0 L 0.359375 0 L 6.75 -9.71875 L 0.359375 -19.78125 L 4.984375 -19.78125 L 9.265625 -13.0625 L 13.28125 -19.78125 L 17.546875 -19.78125 Z M 11.15625 -10.015625 "/></g></g></g></g></g><g clip-path="url(#fe55b992f4)"><g clip-path="url(#c7fd9074ee)"><g clip-path="url(#4e5395fb32)"><path fill="#1ca0e6" d="M 26.390625 235.8125 C 18.640625 252.328125 12.472656 269.417969 7.890625 287.078125 L 7.6875 287.132812 C 11.597656 269.359375 15.25 252.175781 20.507812 235.277344 Z M 26.390625 235.8125 " fill-opacity="1" fill-rule="nonzero"/></g></g></g><g clip-path="url(#bb3411ab99)"><g clip-path="url(#c64dd936fa)"><g clip-path="url(#16e8182ae6)"><path fill="#1ca0e6" d="M 49.785156 173.902344 L 60.78125 181.097656 C 49.101562 195.195312 39.050781 210.765625 30.636719 227.167969 L 23.398438 226.511719 C 26.710938 216.925781 30.679688 207.625 35.3125 198.601562 C 39.695312 190.109375 44.519531 181.875 49.785156 173.902344 Z M 49.785156 173.902344 " fill-opacity="1" fill-rule="nonzero"/></g></g></g><g clip-path="url(#9f896cad72)"><g clip-path="url(#abcd67a054)"><g clip-path="url(#f0240c3a0b)"><path fill="#1ca0e6" d="M 98.398438 119.515625 L 108.269531 138.683594 C 92.8125 148.519531 78.945312 160.582031 66.699219 174.230469 L 54.871094 166.488281 C 65.382812 151.664062 77.378906 138.15625 90.867188 125.972656 C 93.324219 123.757812 95.835938 121.605469 98.398438 119.515625 Z M 98.398438 119.515625 " fill-opacity="1" fill-rule="nonzero"/></g></g></g><g clip-path="url(#df8edbb073)"><g clip-path="url(#8341e81b66)"><g clip-path="url(#10eafd0ea1)"><path fill="#1ca0e6" d="M 144.558594 90.8125 C 149.023438 88.761719 153.558594 86.863281 158.171875 85.109375 L 159.414062 116.972656 C 149.683594 119.140625 140.265625 122.261719 131.167969 126.335938 C 125.960938 128.671875 120.902344 131.238281 116 134.039062 L 105.613281 113.890625 C 117.785156 104.832031 130.769531 97.140625 144.558594 90.8125 Z M 144.558594 90.8125 " fill-opacity="1" fill-rule="nonzero"/></g></g></g><g clip-path="url(#7f386ee43a)"><g clip-path="url(#c718de7fd7)"><g clip-path="url(#d2b0296118)"><path fill="#1ca0e6" d="M 225.511719 71.867188 L 211.226562 115.292969 C 197.113281 112.910156 182.550781 113.027344 168.332031 115.273438 L 167.03125 81.964844 C 185.898438 75.746094 205.703125 72.15625 225.511719 71.867188 Z M 225.511719 71.867188 " fill-opacity="1" fill-rule="nonzero"/></g></g></g><g clip-path="url(#8c49a15b99)"><g clip-path="url(#8d08f5cbe1)"><g clip-path="url(#b299041411)"><path fill="#1ca0e6" d="M 289.445312 83.84375 L 252.125 131.300781 C 245.628906 126.757812 238.648438 123.15625 231.1875 120.492188 C 227.097656 119.023438 222.9375 117.792969 218.707031 116.800781 L 233.464844 71.925781 C 246.519531 72.292969 259.34375 74.199219 271.9375 77.648438 C 277.921875 79.292969 283.757812 81.359375 289.445312 83.84375 Z M 289.445312 83.84375 " fill-opacity="1" fill-rule="nonzero"/></g></g></g><g clip-path="url(#64ea86febf)"><g clip-path="url(#1a9bb439b3)"><g clip-path="url(#3a92f2fb9b)"><path fill="#1ca0e6" d="M 342.175781 125.558594 L 282.902344 166.988281 C 276.488281 155.460938 268.769531 145.046875 258.890625 136.558594 L 297.367188 87.636719 C 315.070312 96.875 329.933594 109.917969 342.175781 125.558594 Z M 342.175781 125.558594 " fill-opacity="1" fill-rule="nonzero"/></g></g></g><g clip-path="url(#a72a27a9ad)"><g clip-path="url(#d678d2c348)"><g clip-path="url(#43d7b95d1c)"><path fill="#1ca0e6" d="M 366.636719 167.382812 L 294.734375 192.554688 C 292.320312 186.425781 289.738281 180.421875 286.898438 174.660156 L 347.28125 132.460938 C 353.832031 141.769531 359.539062 151.867188 364.449219 162.523438 C 364.660156 162.957031 365.492188 164.808594 366.636719 167.382812 Z M 366.636719 167.382812 " fill-opacity="1" fill-rule="nonzero"/></g></g></g><g clip-path="url(#e23f2e3285)"><g clip-path="url(#55cf929b29)"><g clip-path="url(#7fdd9243f9)"><path fill="#1ca0e6" d="M 154.085938 238.679688 L 209.753906 151.992188 L 161.929688 243.242188 Z M 154.085938 238.679688 " fill-opacity="1" fill-rule="nonzero"/></g></g></g><g clip-path="url(#e0c31f12f5)"><g clip-path="url(#735d24bdcf)"><g clip-path="url(#dcba59996c)"><path fill="#1ca0e6" d="M 165.597656 245.359375 C 165.617188 245.777344 165.613281 246.191406 165.585938 246.605469 C 165.554688 247.019531 165.503906 247.433594 165.425781 247.839844 C 165.347656 248.25 165.242188 248.652344 165.117188 249.046875 C 164.992188 249.441406 164.84375 249.832031 164.667969 250.207031 C 164.496094 250.585938 164.300781 250.953125 164.085938 251.308594 C 163.871094 251.664062 163.632812 252.003906 163.378906 252.332031 C 163.121094 252.660156 162.84375 252.96875 162.550781 253.261719 C 162.257812 253.558594 161.945312 253.832031 161.621094 254.089844 C 161.292969 254.347656 160.953125 254.582031 160.597656 254.800781 C 160.242188 255.015625 159.875 255.210938 159.496094 255.382812 C 159.121094 255.554688 158.730469 255.703125 158.335938 255.832031 C 157.941406 255.957031 157.539062 256.058594 157.128906 256.140625 C 156.722656 256.21875 156.308594 256.269531 155.894531 256.300781 C 155.480469 256.328125 155.066406 256.335938 154.652344 256.3125 C 154.234375 256.292969 153.824219 256.25 153.414062 256.179688 C 153.003906 256.109375 152.597656 256.015625 152.199219 255.898438 C 151.800781 255.78125 151.410156 255.640625 151.027344 255.476562 C 150.648438 255.3125 150.277344 255.125 149.917969 254.917969 C 149.558594 254.710938 149.210938 254.480469 148.878906 254.230469 C 148.546875 253.980469 148.230469 253.710938 147.929688 253.425781 C 147.628906 253.136719 147.347656 252.832031 147.082031 252.511719 C 146.820312 252.191406 146.574219 251.855469 146.351562 251.507812 C 146.125 251.15625 145.925781 250.792969 145.742188 250.417969 C 145.5625 250.042969 145.40625 249.660156 145.269531 249.269531 C 145.132812 248.875 145.023438 248.476562 144.9375 248.070312 C 144.847656 247.660156 144.785156 247.25 144.746094 246.835938 C 144.707031 246.425781 144.695312 246.007812 144.707031 245.59375 C 144.71875 245.179688 144.753906 244.765625 144.8125 244.351562 C 144.875 243.941406 144.957031 243.535156 145.066406 243.132812 C 145.175781 242.734375 145.308594 242.339844 145.464844 241.953125 C 145.621094 241.570312 145.796875 241.195312 146 240.832031 C 146.199219 240.464844 146.421875 240.113281 146.664062 239.777344 C 146.90625 239.441406 147.167969 239.117188 147.449219 238.8125 C 147.730469 238.503906 148.027344 238.214844 148.34375 237.945312 C 148.65625 237.671875 148.988281 237.421875 149.332031 237.191406 C 149.679688 236.960938 150.035156 236.75 150.40625 236.558594 C 150.777344 236.371094 151.15625 236.203125 151.546875 236.0625 C 151.9375 235.917969 152.335938 235.796875 152.738281 235.703125 C 153.144531 235.605469 153.550781 235.535156 153.964844 235.484375 C 154.378906 235.4375 154.792969 235.417969 155.207031 235.417969 C 155.625 235.421875 156.039062 235.445312 156.449219 235.5 C 156.863281 235.550781 157.269531 235.625 157.675781 235.726562 C 158.078125 235.824219 158.472656 235.949219 158.863281 236.097656 C 159.25 236.246094 159.628906 236.414062 160 236.605469 C 160.367188 236.800781 160.722656 237.011719 161.066406 237.246094 C 161.410156 237.484375 161.734375 237.738281 162.046875 238.011719 C 162.359375 238.285156 162.65625 238.578125 162.933594 238.886719 C 163.210938 239.195312 163.46875 239.519531 163.710938 239.859375 C 164.871094 241.511719 165.503906 243.34375 165.597656 245.359375 Z M 165.597656 245.359375 " fill-opacity="1" fill-rule="nonzero"/></g></g></g><g clip-path="url(#9b27fd401a)"><g clip-path="url(#39b985103f)"><g clip-path="url(#493eda0389)"><path fill="#1ca0e6" d="M 188.839844 119.042969 C 193.730469 119.164062 198.59375 119.585938 203.433594 120.308594 L 199.699219 141.0625 C 195.742188 140.214844 191.75 139.609375 187.71875 139.253906 Z M 188.839844 119.042969 " fill-opacity="1" fill-rule="nonzero"/></g></g></g><g clip-path="url(#9d53f3b10b)"><g clip-path="url(#591b0acd43)"><g clip-path="url(#da5ea1ca35)"><path fill="#1ca0e6" d="M 217.910156 123.484375 C 222.710938 124.886719 227.386719 126.617188 231.941406 128.683594 L 221.933594 149.152344 C 218.457031 147.296875 214.867188 145.699219 211.164062 144.355469 Z M 217.910156 123.484375 " fill-opacity="1" fill-rule="nonzero"/></g></g></g><g clip-path="url(#f5b92a8536)"><g clip-path="url(#d7aa59ca9d)"><g clip-path="url(#9218d46bc6)"><path fill="#1ca0e6" d="M 245.152344 135.871094 C 249.398438 138.59375 253.425781 141.609375 257.242188 144.90625 L 240.710938 162.972656 C 237.933594 160.238281 234.976562 157.714844 231.839844 155.40625 Z M 245.152344 135.871094 " fill-opacity="1" fill-rule="nonzero"/></g></g></g><g clip-path="url(#5542384faa)"><g clip-path="url(#58fbc57fd9)"><g clip-path="url(#7d7ca0a72a)"><path fill="#1ca0e6" d="M 267.941406 155.53125 C 271.246094 159.300781 274.300781 163.261719 277.105469 167.414062 L 255.007812 181.460938 C 253.027344 178.074219 250.839844 174.824219 248.449219 171.714844 Z M 267.941406 155.53125 " fill-opacity="1" fill-rule="nonzero"/></g></g></g><g clip-path="url(#59032bfc96)"><g clip-path="url(#ff086728eb)"><g clip-path="url(#d6accafd50)"><path fill="#1ca0e6" d="M 284.722656 180.234375 C 287.003906 184.632812 289.046875 189.136719 290.851562 193.75 L 264.605469 203.167969 C 263.398438 199.375 261.992188 195.65625 260.390625 192.015625 Z M 284.722656 180.234375 " fill-opacity="1" fill-rule="nonzero"/></g></g></g><g clip-path="url(#6f28862d54)"><g clip-path="url(#714a834617)"><g clip-path="url(#bda1ad8073)"><path fill="#1ca0e6" d="M 167.292969 120.1875 L 167.300781 120.214844 C 161.847656 120.882812 156.472656 121.9375 151.167969 123.367188 C 145.9375 124.804688 140.824219 126.570312 135.820312 128.660156 C 130.886719 130.738281 126.085938 133.09375 121.425781 135.722656 L 120.542969 136.210938 L 119.683594 136.714844 L 117.96875 137.722656 C 116.832031 138.402344 115.714844 139.109375 114.585938 139.804688 C 113.476562 140.53125 112.359375 141.230469 111.269531 141.96875 L 109.636719 143.082031 L 108.820312 143.636719 L 108.011719 144.207031 C 99.484375 150.269531 91.507812 156.980469 84.082031 164.347656 C 76.75 171.613281 69.90625 179.316406 63.558594 187.457031 C 57.261719 195.523438 51.398438 203.894531 45.96875 212.570312 C 40.542969 221.199219 35.527344 230.039062 30.917969 239.085938 C 28.609375 243.605469 26.386719 248.160156 24.253906 252.753906 C 22.125 257.347656 20.085938 261.976562 18.144531 266.640625 C 15.402344 273.167969 12.839844 279.753906 10.449219 286.398438 L 11.335938 286.164062 C 14.167969 279.917969 17.15625 273.742188 20.292969 267.636719 C 22.589844 263.167969 24.964844 258.746094 27.414062 254.363281 C 29.863281 249.984375 32.40625 245.664062 35.039062 241.398438 C 40.277344 232.863281 45.871094 224.582031 51.820312 216.5625 C 57.738281 208.566406 64.054688 200.902344 70.769531 193.558594 C 77.421875 186.277344 84.511719 179.445312 92.039062 173.070312 C 99.476562 166.765625 107.375 161.109375 115.734375 156.097656 L 116.507812 155.632812 L 117.292969 155.183594 L 118.863281 154.289062 C 119.90625 153.699219 120.96875 153.140625 122.019531 152.5625 C 123.085938 152.015625 124.144531 151.460938 125.214844 150.929688 L 126.828125 150.144531 L 127.632812 149.753906 L 128.445312 149.382812 C 132.742188 147.382812 137.136719 145.636719 141.636719 144.140625 C 146.074219 142.683594 150.585938 141.515625 155.175781 140.632812 C 159.699219 139.785156 164.265625 139.261719 168.863281 139.054688 L 168.871094 139.078125 L 175.40625 138.832031 L 174.40625 119.464844 Z M 167.292969 120.1875 " fill-opacity="1" fill-rule="nonzero"/></g></g></g></svg>