<svg xmlns="http://www.w3.org/2000/svg" width="650" height="160" version="1.0" viewBox="0 0 487.5 120"><defs><clipPath id="a"><path d="M0 0h77v27H0z"/></clipPath><clipPath id="b"><path d="M150 89h11v27h-11Zm0 0"/></clipPath><clipPath id="c"><path d="m130.137 37.363 186.152-49.238 21.84 82.57-186.149 49.243Zm0 0"/></clipPath><clipPath id="d"><path d="m130.137 37.363 186.152-49.238 21.84 82.57-186.149 49.243Zm0 0"/></clipPath><clipPath id="e"><path d="M158 57h20v29h-20Zm0 0"/></clipPath><clipPath id="f"><path d="m130.137 37.363 186.152-49.238 21.84 82.57-186.149 49.243Zm0 0"/></clipPath><clipPath id="g"><path d="m130.137 37.363 186.152-49.238 21.84 82.57-186.149 49.243Zm0 0"/></clipPath><clipPath id="h"><path d="M174 30h29v29h-29Zm0 0"/></clipPath><clipPath id="i"><path d="m130.137 37.363 186.152-49.238 21.84 82.57-186.149 49.243Zm0 0"/></clipPath><clipPath id="j"><path d="m130.137 37.363 186.152-49.238 21.84 82.57-186.149 49.243Zm0 0"/></clipPath><clipPath id="k"><path d="M200 12h29v26h-29Zm0 0"/></clipPath><clipPath id="l"><path d="m130.137 37.363 186.152-49.238 21.84 82.57-186.149 49.243Zm0 0"/></clipPath><clipPath id="m"><path d="m130.137 37.363 186.152-49.238 21.84 82.57-186.149 49.243Zm0 0"/></clipPath><clipPath id="n"><path d="M232 5h30v24h-30Zm0 0"/></clipPath><clipPath id="o"><path d="m130.137 37.363 186.152-49.238 21.84 82.57-186.149 49.243Zm0 0"/></clipPath><clipPath id="p"><path d="m130.137 37.363 186.152-49.238 21.84 82.57-186.149 49.243Zm0 0"/></clipPath><clipPath id="q"><path d="M258 5h37v32h-37Zm0 0"/></clipPath><clipPath id="r"><path d="m130.137 37.363 186.152-49.238 21.84 82.57-186.149 49.243Zm0 0"/></clipPath><clipPath id="s"><path d="m130.137 37.363 186.152-49.238 21.84 82.57-186.149 49.243Zm0 0"/></clipPath><clipPath id="t"><path d="M278 13h44v42h-44Zm0 0"/></clipPath><clipPath id="u"><path d="m130.137 37.363 186.152-49.238 21.84 82.57-186.149 49.243Zm0 0"/></clipPath><clipPath id="v"><path d="m130.137 37.363 186.152-49.238 21.84 82.57-186.149 49.243Zm0 0"/></clipPath><clipPath id="w"><path d="M293 36h41v32h-41Zm0 0"/></clipPath><clipPath id="x"><path d="m130.137 37.363 186.152-49.238 21.84 82.57-186.149 49.243Zm0 0"/></clipPath><clipPath id="y"><path d="m130.137 37.363 186.152-49.238 21.84 82.57-186.149 49.243Zm0 0"/></clipPath><clipPath id="z"><path d="M225 46h29v48h-29Zm0 0"/></clipPath><clipPath id="A"><path d="m130.137 37.363 186.152-49.238 21.84 82.57-186.149 49.243Zm0 0"/></clipPath><clipPath id="B"><path d="m130.137 37.363 186.152-49.238 21.84 82.57-186.149 49.243Zm0 0"/></clipPath><clipPath id="C"><path d="M220 89h12v11h-12Zm0 0"/></clipPath><clipPath id="D"><path d="m130.137 37.363 186.152-49.238 21.84 82.57-186.149 49.243Zm0 0"/></clipPath><clipPath id="E"><path d="m130.137 37.363 186.152-49.238 21.84 82.57-186.149 49.243Zm0 0"/></clipPath><clipPath id="F"><path d="M242 29h9v13h-9Zm0 0"/></clipPath><clipPath id="G"><path d="m130.137 37.363 186.152-49.238 21.84 82.57-186.149 49.243Zm0 0"/></clipPath><clipPath id="H"><path d="m130.137 37.363 186.152-49.238 21.84 82.57-186.149 49.243Zm0 0"/></clipPath><clipPath id="I"><path d="M254 32h12v14h-12Zm0 0"/></clipPath><clipPath id="J"><path d="m130.137 37.363 186.152-49.238 21.84 82.57-186.149 49.243Zm0 0"/></clipPath><clipPath id="K"><path d="m130.137 37.363 186.152-49.238 21.84 82.57-186.149 49.243Zm0 0"/></clipPath><clipPath id="L"><path d="M265 38h14v15h-14Zm0 0"/></clipPath><clipPath id="M"><path d="m130.137 37.363 186.152-49.238 21.84 82.57-186.149 49.243Zm0 0"/></clipPath><clipPath id="N"><path d="m130.137 37.363 186.152-49.238 21.84 82.57-186.149 49.243Zm0 0"/></clipPath><clipPath id="O"><path d="M273 48h16v14h-16Zm0 0"/></clipPath><clipPath id="P"><path d="m130.137 37.363 186.152-49.238 21.84 82.57-186.149 49.243Zm0 0"/></clipPath><clipPath id="Q"><path d="m130.137 37.363 186.152-49.238 21.84 82.57-186.149 49.243Zm0 0"/></clipPath><clipPath id="R"><path d="M279 61h17v12h-17Zm0 0"/></clipPath><clipPath id="S"><path d="m130.137 37.363 186.152-49.238 21.84 82.57-186.149 49.243Zm0 0"/></clipPath><clipPath id="T"><path d="m130.137 37.363 186.152-49.238 21.84 82.57-186.149 49.243Zm0 0"/></clipPath><clipPath id="U"><path d="M152 30h85v86h-85Zm0 0"/></clipPath><clipPath id="V"><path d="m130.137 37.363 186.152-49.238 21.84 82.57-186.149 49.243Zm0 0"/></clipPath><clipPath id="W"><path d="m130.137 37.363 186.152-49.238 21.84 82.57-186.149 49.243Zm0 0"/></clipPath></defs><g fill="#1a3252" clip-path="url(#a)" transform="translate(209 80)"><path d="M6.325 19.711q-1.283.001-2.313-.437-1.018-.45-1.609-1.281-.58-.827-.578-1.922h2.234q.06.831.64 1.36.577.531 1.626.53c.719 0 1.273-.171 1.672-.515q.61-.528.61-1.36 0-.639-.376-1.03a2.5 2.5 0 0 0-.937-.626 16 16 0 0 0-1.532-.484q-1.253-.329-2.03-.656a3.5 3.5 0 0 1-1.329-1.047q-.549-.716-.547-1.922-.002-1.092.547-1.906.562-.826 1.547-1.266.982-.437 2.281-.438 1.843.001 3.016.922 1.185.926 1.328 2.532H8.262q-.046-.704-.656-1.188-.609-.499-1.594-.5c-.593 0-1.086.156-1.468.469q-.563.457-.563 1.312c0 .387.117.703.36.953q.356.377.906.594.544.222 1.5.485 1.266.345 2.062.703c.532.23.977.586 1.344 1.062q.563.72.563 1.922-.002.972-.532 1.828c-.343.574-.851 1.04-1.515 1.39q-.985.517-2.344.516m0 0"/><path d="M17.103 19.758q-1.441 0-2.594-.656a4.8 4.8 0 0 1-1.813-1.828q-.656-1.186-.656-2.734 0-1.547.672-2.735a4.8 4.8 0 0 1 1.86-1.828q1.171-.64 2.624-.64 1.437 0 2.61.64a4.7 4.7 0 0 1 1.844 1.828q.686 1.188.687 2.735 0 1.535-.703 2.718a4.8 4.8 0 0 1-1.89 1.844 5.44 5.44 0 0 1-2.641.656m0-1.812q.795 0 1.5-.39.701-.389 1.14-1.157.452-.763.453-1.86 0-1.09-.421-1.859-.423-.763-1.125-1.14a3 3 0 0 0-1.5-.391c-.532 0-1.028.133-1.485.39q-.69.377-1.094 1.141-.408.769-.406 1.86-.002 1.626.828 2.515.844.89 2.11.89m0 0"/><path d="M26.018 6.04v13.546H23.94V6.04Zm0 0"/><path d="M27.608 14.493c0-1.008.207-1.907.625-2.688a4.66 4.66 0 0 1 1.719-1.812 4.6 4.6 0 0 1 2.422-.657q1.183 0 2.062.47.89.469 1.422 1.155V9.508h2.11v10.078h-2.11v-1.5q-.533.721-1.453 1.204-.907.468-2.078.468a4.4 4.4 0 0 1-2.375-.672q-1.08-.669-1.719-1.859-.626-1.199-.625-2.734m8.25.047q-.002-1.044-.437-1.813a3 3 0 0 0-1.125-1.172 2.9 2.9 0 0 0-1.485-.406q-.814.001-1.515.406-.692.394-1.125 1.156-.423.75-.422 1.782 0 1.047.422 1.843c.289.524.671.922 1.14 1.204q.715.408 1.5.406a2.85 2.85 0 0 0 1.485-.406q.702-.404 1.125-1.172.435-.78.437-1.828m0 0"/><path d="M53.646 6.868v12.718h-2.078v-8.703l-3.891 8.703h-1.438l-3.906-8.703v8.703h-2.078V6.868h2.25l4.469 9.968 4.437-9.968Zm0 0"/><path d="M55.227 14.493c0-1.008.207-1.907.625-2.688a4.66 4.66 0 0 1 1.719-1.812 4.6 4.6 0 0 1 2.422-.657q1.183 0 2.062.47.89.469 1.422 1.155V9.508h2.11v10.078h-2.11v-1.5q-.533.721-1.453 1.204-.908.468-2.078.468a4.4 4.4 0 0 1-2.375-.672q-1.08-.669-1.719-1.859-.626-1.199-.625-2.734m8.25.047q-.002-1.044-.437-1.813a3 3 0 0 0-1.125-1.172 2.9 2.9 0 0 0-1.485-.406q-.814.001-1.515.406-.691.394-1.125 1.156-.422.75-.422 1.782 0 1.047.422 1.843c.289.524.671.922 1.14 1.204q.715.408 1.5.406a2.85 2.85 0 0 0 1.485-.406q.702-.404 1.125-1.172.435-.78.437-1.828m0 0"/><path d="m72.186 14.477 3.266 5.11h-2.36l-2.187-3.422-2.047 3.421h-2.172l3.25-4.953-3.25-5.125h2.36l2.172 3.422 2.047-3.422h2.187Zm0 0"/></g><g clip-path="url(#b)"><g clip-path="url(#c)"><g clip-path="url(#d)"><path fill="#1ca0e6" d="M160.379 89.496a150 150 0 0 0-9.43 26.125l-.105.027c1.996-9.054 3.855-17.816 6.535-26.43Zm0 0"/></g></g></g><g clip-path="url(#e)"><g clip-path="url(#f)"><g clip-path="url(#g)"><path fill="#1ca0e6" d="m172.3 57.938 5.606 3.667c-5.953 7.188-11.074 15.122-15.363 23.48l-3.691-.331a109 109 0 0 1 6.074-14.227 137 137 0 0 1 7.375-12.59m0 0"/></g></g></g><g clip-path="url(#h)"><g clip-path="url(#i)"><g clip-path="url(#j)"><path fill="#1ca0e6" d="m197.078 30.219 5.031 9.773c-7.879 5.012-14.945 11.16-21.187 18.117l-6.027-3.949a126 126 0 0 1 18.343-20.648 106 106 0 0 1 3.84-3.293m0 0"/></g></g></g><g clip-path="url(#k)"><g clip-path="url(#l)"><g clip-path="url(#m)"><path fill="#1ca0e6" d="M220.605 15.59a113 113 0 0 1 6.938-2.906l.633 16.238a75.3 75.3 0 0 0-14.395 4.777 89 89 0 0 0-7.73 3.922l-5.293-10.266a110 110 0 0 1 19.847-11.765m0 0"/></g></g></g><g clip-path="url(#n)"><g clip-path="url(#o)"><g clip-path="url(#p)"><path fill="#1ca0e6" d="m261.863 5.934-7.281 22.132c-7.191-1.21-14.613-1.152-21.86-.007l-.663-16.977c9.617-3.172 19.71-5 29.804-5.148m0 0"/></g></g></g><g clip-path="url(#q)"><g clip-path="url(#r)"><g clip-path="url(#s)"><path fill="#1ca0e6" d="m294.45 12.04-19.02 24.187a45 45 0 0 0-10.672-5.508 58 58 0 0 0-6.36-1.883l7.52-22.871a83 83 0 0 1 19.61 2.918q4.575 1.258 8.921 3.156m0 0"/></g></g></g><g clip-path="url(#t)"><g clip-path="url(#u)"><g clip-path="url(#v)"><path fill="#1ca0e6" d="m321.324 33.3-30.21 21.114c-3.27-5.875-7.2-11.18-12.239-15.508l19.613-24.933c9.024 4.71 16.598 11.355 22.836 19.328m0 0"/></g></g></g><g clip-path="url(#w)"><g clip-path="url(#x)"><g clip-path="url(#y)"><path fill="#1ca0e6" d="m333.793 54.617-36.648 12.828c-1.23-3.12-2.547-6.183-3.993-9.117l30.774-21.512c3.34 4.746 6.25 9.895 8.754 15.325.105.222.527 1.164 1.113 2.476m0 0"/></g></g></g><g clip-path="url(#z)"><g clip-path="url(#A)"><g clip-path="url(#B)"><path fill="#1ca0e6" d="m225.46 90.953 28.376-44.18-24.375 46.508Zm0 0"/></g></g></g><g clip-path="url(#C)"><g clip-path="url(#D)"><g clip-path="url(#E)"><path fill="#1ca0e6" d="M231.328 94.36q.032.638-.09 1.265-.118.627-.383 1.207a5.2 5.2 0 0 1-.66 1.082 5.4 5.4 0 0 1-1.977 1.555q-.579.264-1.206.383-.628.124-1.262.09a5.3 5.3 0 0 1-3.426-1.473 5 5 0 0 1-.804-.977 5.2 5.2 0 0 1-.551-1.14 5.2 5.2 0 0 1-.266-1.239 5.28 5.28 0 0 1 .977-3.597q.368-.52.855-.934a5.2 5.2 0 0 1 1.05-.707q.568-.292 1.188-.437a5.3 5.3 0 0 1 1.258-.145 5.3 5.3 0 0 1 2.441.605 5.3 5.3 0 0 1 1.895 1.66c.59.84.914 1.774.961 2.801m0 0"/></g></g></g><g clip-path="url(#F)"><g clip-path="url(#G)"><g clip-path="url(#H)"><path fill="#1ca0e6" d="M243.176 29.98q3.736.095 7.437.645l-1.906 10.578a50 50 0 0 0-6.105-.922Zm0 0"/></g></g></g><g clip-path="url(#I)"><g clip-path="url(#J)"><g clip-path="url(#K)"><path fill="#1ca0e6" d="M257.992 32.242a53.6 53.6 0 0 1 7.149 2.653l-5.102 10.43a42 42 0 0 0-5.488-2.446Zm0 0"/></g></g></g><g clip-path="url(#L)"><g clip-path="url(#M)"><g clip-path="url(#N)"><path fill="#1ca0e6" d="M271.875 38.559a54 54 0 0 1 6.16 4.601l-8.426 9.207a42 42 0 0 0-4.52-3.855Zm0 0"/></g></g></g><g clip-path="url(#O)"><g clip-path="url(#P)"><g clip-path="url(#Q)"><path fill="#1ca0e6" d="M283.488 48.578a60 60 0 0 1 4.672 6.055l-11.262 7.16a48 48 0 0 0-3.343-4.969Zm0 0"/></g></g></g><g clip-path="url(#R)"><g clip-path="url(#S)"><g clip-path="url(#T)"><path fill="#1ca0e6" d="M292.043 61.168a72 72 0 0 1 3.125 6.887l-13.379 4.8a57 57 0 0 0-2.148-5.683Zm0 0"/></g></g></g><g clip-path="url(#U)"><g clip-path="url(#V)"><g clip-path="url(#W)"><path fill="#1ca0e6" d="m232.191 30.563.004.011a59.5 59.5 0 0 0-8.222 1.61 66 66 0 0 0-7.82 2.695 72 72 0 0 0-7.34 3.601l-.446.25-.437.254-.875.516c-.582.348-1.153.707-1.727 1.059-.562.37-1.133.73-1.687 1.105l-.836.566-.414.286-.41.289a97.5 97.5 0 0 0-12.2 10.265 124 124 0 0 0-10.46 11.778 152 152 0 0 0-8.966 12.8 172 172 0 0 0-7.667 13.516 194 194 0 0 0-3.399 6.965q-1.63 3.51-3.113 7.078a205 205 0 0 0-3.922 10.07l.453-.12a212 212 0 0 1 4.563-9.442 224 224 0 0 1 3.628-6.766q1.876-3.345 3.887-6.61a175 175 0 0 1 8.555-12.655 147 147 0 0 1 9.656-11.727c3.39-3.71 7.008-7.191 10.844-10.441a90.4 90.4 0 0 1 12.074-8.649l.395-.238.402-.23.797-.454c.531-.304 1.074-.586 1.61-.883.542-.277 1.085-.562 1.628-.832l1.23-.597.415-.192a64 64 0 0 1 6.722-2.668 56 56 0 0 1 6.903-1.789q3.461-.648 6.976-.804l.004.011 3.332-.125-.512-9.87Zm0 0"/></g></g></g></svg>