<svg xmlns="http://www.w3.org/2000/svg" width="500" height="500" version="1.0" viewBox="0 0 375 375"><defs><clipPath id="a"><path d="M0 0h149v52H0z"/></clipPath><clipPath id="b"><path d="M7 235h20v53H7Zm0 0"/></clipPath><clipPath id="c"><path d="m-32.941 133.535 365.433-96.664 42.766 161.692-365.43 96.66Zm0 0"/></clipPath><clipPath id="d"><path d="m-32.941 133.535 365.433-96.664 42.766 161.692-365.43 96.66Zm0 0"/></clipPath><clipPath id="e"><path d="M23 173h38v55H23Zm0 0"/></clipPath><clipPath id="f"><path d="m-32.941 133.535 365.433-96.664 42.766 161.692-365.43 96.66Zm0 0"/></clipPath><clipPath id="g"><path d="m-32.941 133.535 365.433-96.664 42.766 161.692-365.43 96.66Zm0 0"/></clipPath><clipPath id="h"><path d="M54 119h55v56H54Zm0 0"/></clipPath><clipPath id="i"><path d="m-32.941 133.535 365.433-96.664 42.766 161.692-365.43 96.66Zm0 0"/></clipPath><clipPath id="j"><path d="m-32.941 133.535 365.433-96.664 42.766 161.692-365.43 96.66Zm0 0"/></clipPath><clipPath id="k"><path d="M105 85h55v50h-55Zm0 0"/></clipPath><clipPath id="l"><path d="m-32.941 133.535 365.433-96.664 42.766 161.692-365.43 96.66Zm0 0"/></clipPath><clipPath id="m"><path d="m-32.941 133.535 365.433-96.664 42.766 161.692-365.43 96.66Zm0 0"/></clipPath><clipPath id="n"><path d="M167 71h59v45h-59Zm0 0"/></clipPath><clipPath id="o"><path d="m-32.941 133.535 365.433-96.664 42.766 161.692-365.43 96.66Zm0 0"/></clipPath><clipPath id="p"><path d="m-32.941 133.535 365.433-96.664 42.766 161.692-365.43 96.66Zm0 0"/></clipPath><clipPath id="q"><path d="M218 71h72v61h-72Zm0 0"/></clipPath><clipPath id="r"><path d="m-32.941 133.535 365.433-96.664 42.766 161.692-365.43 96.66Zm0 0"/></clipPath><clipPath id="s"><path d="m-32.941 133.535 365.433-96.664 42.766 161.692-365.43 96.66Zm0 0"/></clipPath><clipPath id="t"><path d="M258 87h85v80h-85Zm0 0"/></clipPath><clipPath id="u"><path d="m-32.941 133.535 365.433-96.664 42.766 161.692-365.43 96.66Zm0 0"/></clipPath><clipPath id="v"><path d="m-32.941 133.535 365.433-96.664 42.766 161.692-365.43 96.66Zm0 0"/></clipPath><clipPath id="w"><path d="M286 132h81v61h-81Zm0 0"/></clipPath><clipPath id="x"><path d="m-32.941 133.535 365.433-96.664 42.766 161.692-365.43 96.66Zm0 0"/></clipPath><clipPath id="y"><path d="m-32.941 133.535 365.433-96.664 42.766 161.692-365.43 96.66Zm0 0"/></clipPath><clipPath id="z"><path d="M154 151h56v93h-56Zm0 0"/></clipPath><clipPath id="A"><path d="m-32.941 133.535 365.433-96.664 42.766 161.692-365.43 96.66Zm0 0"/></clipPath><clipPath id="B"><path d="m-32.941 133.535 365.433-96.664 42.766 161.692-365.43 96.66Zm0 0"/></clipPath><clipPath id="C"><path d="M144 235h22v22h-22Zm0 0"/></clipPath><clipPath id="D"><path d="m-32.941 133.535 365.433-96.664 42.766 161.692-365.43 96.66Zm0 0"/></clipPath><clipPath id="E"><path d="m-32.941 133.535 365.433-96.664 42.766 161.692-365.43 96.66Zm0 0"/></clipPath><clipPath id="F"><path d="M187 119h17v23h-17Zm0 0"/></clipPath><clipPath id="G"><path d="m-32.941 133.535 365.433-96.664 42.766 161.692-365.43 96.66Zm0 0"/></clipPath><clipPath id="H"><path d="m-32.941 133.535 365.433-96.664 42.766 161.692-365.43 96.66Zm0 0"/></clipPath><clipPath id="I"><path d="M211 123h21v27h-21Zm0 0"/></clipPath><clipPath id="J"><path d="m-32.941 133.535 365.433-96.664 42.766 161.692-365.43 96.66Zm0 0"/></clipPath><clipPath id="K"><path d="m-32.941 133.535 365.433-96.664 42.766 161.692-365.43 96.66Zm0 0"/></clipPath><clipPath id="L"><path d="M231 135h27v28h-27Zm0 0"/></clipPath><clipPath id="M"><path d="m-32.941 133.535 365.433-96.664 42.766 161.692-365.43 96.66Zm0 0"/></clipPath><clipPath id="N"><path d="m-32.941 133.535 365.433-96.664 42.766 161.692-365.43 96.66Zm0 0"/></clipPath><clipPath id="O"><path d="M248 155h30v27h-30Zm0 0"/></clipPath><clipPath id="P"><path d="m-32.941 133.535 365.433-96.664 42.766 161.692-365.43 96.66Zm0 0"/></clipPath><clipPath id="Q"><path d="m-32.941 133.535 365.433-96.664 42.766 161.692-365.43 96.66Zm0 0"/></clipPath><clipPath id="R"><path d="M260 180h31v24h-31Zm0 0"/></clipPath><clipPath id="S"><path d="m-32.941 133.535 365.433-96.664 42.766 161.692-365.43 96.66Zm0 0"/></clipPath><clipPath id="T"><path d="m-32.941 133.535 365.433-96.664 42.766 161.692-365.43 96.66Zm0 0"/></clipPath><clipPath id="U"><path d="M10 119h166v168H10Zm0 0"/></clipPath><clipPath id="V"><path d="m-32.941 133.535 365.433-96.664 42.766 161.692-365.43 96.66Zm0 0"/></clipPath><clipPath id="W"><path d="m-32.941 133.535 365.433-96.664 42.766 161.692-365.43 96.66Zm0 0"/></clipPath></defs><g fill="#1a3252" clip-path="url(#a)" transform="translate(123 217)"><path d="M11.186 38.862c-1.68 0-3.187-.29-4.531-.875q-2.003-.873-3.156-2.485-1.142-1.624-1.141-3.78h4.375q.155 1.611 1.281 2.655 1.123 1.049 3.172 1.047c1.414 0 2.516-.336 3.297-1.015.79-.688 1.188-1.57 1.188-2.657q-.002-1.247-.735-2.03a4.8 4.8 0 0 0-1.828-1.22q-1.096-.433-3.031-.937-2.439-.656-3.969-1.313-1.517-.667-2.594-2.062c-.718-.938-1.078-2.18-1.078-3.734q0-2.156 1.078-3.766 1.078-1.623 3.016-2.484c1.289-.57 2.785-.86 4.484-.86q3.622.001 5.938 1.813 2.31 1.816 2.562 4.968H15q-.113-1.358-1.297-2.328-1.19-.967-3.125-.968-1.751.002-2.875.906-1.112.89-1.11 2.578 0 1.143.704 1.875.702.738 1.78 1.172c.72.281 1.696.59 2.938.922q2.485.69 4.032 1.375 1.559.675 2.656 2.093 1.108 1.425 1.11 3.782c0 1.273-.345 2.468-1.032 3.593q-1.018 1.688-2.984 2.72-1.956 1.017-4.61 1.015m0 0"/><path d="M32.323 38.94q-2.8 0-5.062-1.266-2.251-1.277-3.547-3.593-1.299-2.328-1.297-5.375 0-3.013 1.328-5.344c.883-1.563 2.094-2.758 3.625-3.594 1.532-.832 3.243-1.25 5.141-1.25 1.883 0 3.594.418 5.125 1.25 1.531.836 2.738 2.031 3.625 3.594q1.326 2.332 1.328 5.344 0 3.016-1.36 5.359a9.44 9.44 0 0 1-3.718 3.61q-2.345 1.265-5.188 1.265m0-3.563q1.577 0 2.954-.75 1.387-.75 2.25-2.25c.57-1.007.859-2.234.859-3.671q0-2.155-.828-3.641-.816-1.483-2.188-2.234a5.9 5.9 0 0 0-2.937-.766 5.8 5.8 0 0 0-2.922.766q-1.346.751-2.14 2.234c-.524.992-.782 2.203-.782 3.64q-.001 3.19 1.625 4.938c1.094 1.156 2.461 1.734 4.11 1.734m0 0"/><path d="M49.837 12.05v26.562h-4.094V12.049Zm0 0"/><path d="M52.96 28.627c0-1.976.41-3.734 1.235-5.265q1.23-2.297 3.375-3.563 2.14-1.278 4.719-1.28 2.343 0 4.078.921 1.733.907 2.781 2.266V18.83h4.125v19.78h-4.125v-2.937c-.7.93-1.648 1.703-2.844 2.328-1.187.622-2.546.938-4.078.938q-2.55 0-4.672-1.313-2.128-1.312-3.359-3.656-1.235-2.355-1.234-5.344m16.188.079q0-2.047-.844-3.547c-.562-1.008-1.304-1.774-2.218-2.297a5.7 5.7 0 0 0-2.938-.797 5.8 5.8 0 0 0-2.937.781q-1.36.767-2.203 2.266-.844 1.488-.844 3.515c0 1.368.281 2.563.844 3.594q.842 1.548 2.218 2.36a5.8 5.8 0 0 0 2.922.796c1.05 0 2.031-.257 2.938-.78.914-.532 1.656-1.302 2.218-2.313q.844-1.529.844-3.578m0 0"/><path d="M104.035 13.674v24.938H99.94V21.534l-7.61 17.078h-2.843l-7.64-17.078v17.078h-4.094V13.674h4.421l8.75 19.547 8.72-19.547Zm0 0"/><path d="M107.149 28.627c0-1.976.41-3.734 1.234-5.265q1.23-2.297 3.375-3.563 2.14-1.278 4.719-1.28 2.344 0 4.078.921 1.733.907 2.781 2.266V18.83h4.125v19.78h-4.125v-2.937c-.7.93-1.648 1.703-2.844 2.328-1.187.622-2.547.938-4.078.938q-2.55 0-4.672-1.313-2.128-1.312-3.359-3.656-1.235-2.355-1.234-5.344m16.187.079q0-2.047-.844-3.547-.845-1.512-2.218-2.297a5.7 5.7 0 0 0-2.938-.797 5.8 5.8 0 0 0-2.937.781q-1.36.767-2.204 2.266-.843 1.488-.843 3.515c0 1.368.281 2.563.843 3.594q.843 1.548 2.22 2.36a5.8 5.8 0 0 0 2.921.796c1.05 0 2.031-.257 2.938-.78.914-.532 1.656-1.302 2.218-2.313q.844-1.529.844-3.578m0 0"/><path d="m140.41 28.596 6.39 10.016h-4.624l-4.266-6.719-4.031 6.719h-4.266l6.391-9.719-6.39-10.062h4.624l4.282 6.718 4.015-6.718h4.266Zm0 0"/></g><g clip-path="url(#b)"><g clip-path="url(#c)"><g clip-path="url(#d)"><path fill="#1ca0e6" d="M26.39 235.813a294.6 294.6 0 0 0-18.5 51.265l-.202.055c3.91-17.774 7.562-34.957 12.82-51.856Zm0 0"/></g></g></g><g clip-path="url(#e)"><g clip-path="url(#f)"><g clip-path="url(#g)"><path fill="#1ca0e6" d="m49.785 173.902 10.996 7.196c-11.68 14.097-21.73 29.668-30.144 46.07l-7.239-.656a214 214 0 0 1 11.915-27.91 267 267 0 0 1 14.472-24.7m0 0"/></g></g></g><g clip-path="url(#h)"><g clip-path="url(#i)"><g clip-path="url(#j)"><path fill="#1ca0e6" d="m98.398 119.516 9.872 19.168c-15.457 9.836-29.325 21.898-41.57 35.546l-11.829-7.742a246.8 246.8 0 0 1 35.996-40.515 201 201 0 0 1 7.531-6.457m0 0"/></g></g></g><g clip-path="url(#k)"><g clip-path="url(#l)"><g clip-path="url(#m)"><path fill="#1ca0e6" d="M144.559 90.813q6.695-3.075 13.613-5.704l1.242 31.864a147.3 147.3 0 0 0-28.246 9.363A175 175 0 0 0 116 134.039l-10.387-20.148a216 216 0 0 1 38.946-23.079m0 0"/></g></g></g><g clip-path="url(#n)"><g clip-path="url(#o)"><g clip-path="url(#p)"><path fill="#1ca0e6" d="m225.512 71.867-14.285 43.426c-14.114-2.383-28.676-2.266-42.895-.02l-1.3-33.308c18.866-6.219 38.671-9.809 58.48-10.098m0 0"/></g></g></g><g clip-path="url(#q)"><g clip-path="url(#r)"><g clip-path="url(#s)"><path fill="#1ca0e6" d="m289.445 83.844-37.32 47.457a88 88 0 0 0-20.937-10.809q-6.135-2.203-12.481-3.691l14.758-44.875a162.4 162.4 0 0 1 38.473 5.722 129 129 0 0 1 17.507 6.196m0 0"/></g></g></g><g clip-path="url(#t)"><g clip-path="url(#u)"><g clip-path="url(#v)"><path fill="#1ca0e6" d="m342.176 125.559-59.274 41.43c-6.414-11.528-14.132-21.942-24.011-30.43l38.476-48.922c17.703 9.238 32.567 22.281 44.809 37.922m0 0"/></g></g></g><g clip-path="url(#w)"><g clip-path="url(#x)"><g clip-path="url(#y)"><path fill="#1ca0e6" d="m366.637 167.383-71.903 25.172c-2.414-6.13-4.996-12.133-7.836-17.895l60.383-42.2c6.551 9.31 12.258 19.407 17.168 30.063.211.434 1.043 2.286 2.188 4.86m0 0"/></g></g></g><g clip-path="url(#z)"><g clip-path="url(#A)"><g clip-path="url(#B)"><path fill="#1ca0e6" d="m154.086 238.68 55.668-86.688-47.824 91.25Zm0 0"/></g></g></g><g clip-path="url(#C)"><g clip-path="url(#D)"><g clip-path="url(#E)"><path fill="#1ca0e6" d="M165.598 245.36q.03.625-.012 1.245-.045.624-.16 1.235a10.5 10.5 0 0 1-1.34 3.469q-.324.532-.707 1.023a10 10 0 0 1-.828.93 10.35 10.35 0 0 1-4.215 2.57 11 11 0 0 1-1.207.309q-.611.115-1.234.16a10 10 0 0 1-1.243.012q-.625-.029-1.238-.133a10.7 10.7 0 0 1-2.387-.703q-.57-.248-1.109-.559a10 10 0 0 1-1.04-.688q-.497-.376-.948-.804-.45-.434-.848-.914a10.6 10.6 0 0 1-1.34-2.094q-.269-.563-.472-1.148a10 10 0 0 1-.333-1.2q-.134-.614-.19-1.234a10 10 0 0 1-.04-1.242 11 11 0 0 1 .106-1.242q.091-.615.253-1.22.165-.598.399-1.179.232-.576.535-1.121.3-.55.664-1.055.363-.506.785-.964.42-.464.895-.868.47-.409.988-.754a10.2 10.2 0 0 1 2.215-1.129q.586-.217 1.191-.359a11 11 0 0 1 1.227-.219c.414-.047.828-.066 1.242-.066.418.004.832.027 1.242.082.414.05.82.125 1.227.227q.602.147 1.187.37.58.223 1.137.508.551.292 1.066.641.514.356.98.766a10.4 10.4 0 0 1 1.665 1.847 10.2 10.2 0 0 1 1.887 5.5m0 0"/></g></g></g><g clip-path="url(#F)"><g clip-path="url(#G)"><g clip-path="url(#H)"><path fill="#1ca0e6" d="M188.84 119.043q7.334.181 14.594 1.266l-3.735 20.754a98 98 0 0 0-11.98-1.81Zm0 0"/></g></g></g><g clip-path="url(#I)"><g clip-path="url(#J)"><g clip-path="url(#K)"><path fill="#1ca0e6" d="M217.91 123.484c4.8 1.403 9.477 3.133 14.031 5.2l-10.007 20.468a83 83 0 0 0-10.77-4.797Zm0 0"/></g></g></g><g clip-path="url(#L)"><g clip-path="url(#M)"><g clip-path="url(#N)"><path fill="#1ca0e6" d="M245.152 135.871a106 106 0 0 1 12.09 9.035l-16.531 18.067a81.4 81.4 0 0 0-8.871-7.567Zm0 0"/></g></g></g><g clip-path="url(#O)"><g clip-path="url(#P)"><g clip-path="url(#Q)"><path fill="#1ca0e6" d="M267.941 155.531q4.958 5.654 9.164 11.883l-22.097 14.047a93 93 0 0 0-6.559-9.746Zm0 0"/></g></g></g><g clip-path="url(#R)"><g clip-path="url(#S)"><g clip-path="url(#T)"><path fill="#1ca0e6" d="M284.723 180.234a141 141 0 0 1 6.129 13.516l-26.247 9.418a112 112 0 0 0-4.214-11.152Zm0 0"/></g></g></g><g clip-path="url(#U)"><g clip-path="url(#V)"><g clip-path="url(#W)"><path fill="#1ca0e6" d="m167.293 120.188.008.027a116 116 0 0 0-16.133 3.152 127 127 0 0 0-15.348 5.293 140 140 0 0 0-14.394 7.063l-.883.488-.86.504-1.714 1.008c-1.137.68-2.254 1.386-3.383 2.082-1.11.726-2.227 1.425-3.316 2.164l-1.633 1.113-.817.555-.808.57a191 191 0 0 0-23.93 20.14 242 242 0 0 0-20.523 23.11 296 296 0 0 0-17.59 25.113 338 338 0 0 0-15.051 26.516 405 405 0 0 0-6.664 13.668 384 384 0 0 0-6.11 13.887 405 405 0 0 0-7.695 19.757l.887-.234a421 421 0 0 1 8.957-18.527 433 433 0 0 1 7.121-13.274q3.675-6.567 7.625-12.965a341 341 0 0 1 16.781-24.835 288 288 0 0 1 18.95-23.004 231 231 0 0 1 21.27-20.489 178.6 178.6 0 0 1 23.694-16.972l.774-.465.785-.45 1.57-.894c1.043-.59 2.106-1.148 3.157-1.726 1.066-.547 2.125-1.102 3.195-1.633l1.613-.785.805-.391.812-.371q6.444-2.999 13.192-5.242a110 110 0 0 1 13.539-3.508 98 98 0 0 1 13.687-1.578l.008.023 6.535-.246-1-19.367Zm0 0"/></g></g></g></svg>