<svg color="#1CA0E6" width="193.98" height="120.73" xmlns="http://www.w3.org/2000/svg" version="1.0" viewBox="145.26 0.26 193.98 120.73"><defs><clipPath id="a"><path d="M150 89h11v27h-11Zm0 0"/></clipPath><clipPath id="b"><path d="m130.137 37.363 186.152-49.238 21.84 82.57-186.149 49.243Zm0 0"/></clipPath><clipPath id="d"><path d="m130.137 37.363 186.152-49.238 21.84 82.57-186.149 49.243Zm0 0"/></clipPath><clipPath id="e"><path d="M158 57h20v29h-20Zm0 0"/></clipPath><clipPath id="f"><path d="m130.137 37.363 186.152-49.238 21.84 82.57-186.149 49.243Zm0 0"/></clipPath><clipPath id="g"><path d="m130.137 37.363 186.152-49.238 21.84 82.57-186.149 49.243Zm0 0"/></clipPath><clipPath id="h"><path d="M174 30h29v29h-29Zm0 0"/></clipPath><clipPath id="i"><path d="m130.137 37.363 186.152-49.238 21.84 82.57-186.149 49.243Zm0 0"/></clipPath><clipPath id="j"><path d="m130.137 37.363 186.152-49.238 21.84 82.57-186.149 49.243Zm0 0"/></clipPath><clipPath id="k"><path d="M200 12h29v26h-29Zm0 0"/></clipPath><clipPath id="l"><path d="m130.137 37.363 186.152-49.238 21.84 82.57-186.149 49.243Zm0 0"/></clipPath><clipPath id="m"><path d="m130.137 37.363 186.152-49.238 21.84 82.57-186.149 49.243Zm0 0"/></clipPath><clipPath id="n"><path d="M232 5h30v24h-30Zm0 0"/></clipPath><clipPath id="o"><path d="m130.137 37.363 186.152-49.238 21.84 82.57-186.149 49.243Zm0 0"/></clipPath><clipPath id="p"><path d="m130.137 37.363 186.152-49.238 21.84 82.57-186.149 49.243Zm0 0"/></clipPath><clipPath id="q"><path d="M258 5h37v32h-37Zm0 0"/></clipPath><clipPath id="r"><path d="m130.137 37.363 186.152-49.238 21.84 82.57-186.149 49.243Zm0 0"/></clipPath><clipPath id="s"><path d="m130.137 37.363 186.152-49.238 21.84 82.57-186.149 49.243Zm0 0"/></clipPath><clipPath id="t"><path d="M278 13h44v42h-44Zm0 0"/></clipPath><clipPath id="u"><path d="m130.137 37.363 186.152-49.238 21.84 82.57-186.149 49.243Zm0 0"/></clipPath><clipPath id="v"><path d="m130.137 37.363 186.152-49.238 21.84 82.57-186.149 49.243Zm0 0"/></clipPath><clipPath id="w"><path d="M293 36h41v32h-41Zm0 0"/></clipPath><clipPath id="x"><path d="m130.137 37.363 186.152-49.238 21.84 82.57-186.149 49.243Zm0 0"/></clipPath><clipPath id="y"><path d="m130.137 37.363 186.152-49.238 21.84 82.57-186.149 49.243Zm0 0"/></clipPath><clipPath id="z"><path d="M225 46h29v48h-29Zm0 0"/></clipPath><clipPath id="A"><path d="m130.137 37.363 186.152-49.238 21.84 82.57-186.149 49.243Zm0 0"/></clipPath><clipPath id="B"><path d="m130.137 37.363 186.152-49.238 21.84 82.57-186.149 49.243Zm0 0"/></clipPath><clipPath id="C"><path d="M220 89h12v11h-12Zm0 0"/></clipPath><clipPath id="D"><path d="m130.137 37.363 186.152-49.238 21.84 82.57-186.149 49.243Zm0 0"/></clipPath><clipPath id="E"><path d="m130.137 37.363 186.152-49.238 21.84 82.57-186.149 49.243Zm0 0"/></clipPath><clipPath id="F"><path d="M242 29h9v13h-9Zm0 0"/></clipPath><clipPath id="G"><path d="m130.137 37.363 186.152-49.238 21.84 82.57-186.149 49.243Zm0 0"/></clipPath><clipPath id="H"><path d="m130.137 37.363 186.152-49.238 21.84 82.57-186.149 49.243Zm0 0"/></clipPath><clipPath id="I"><path d="M254 32h12v14h-12Zm0 0"/></clipPath><clipPath id="J"><path d="m130.137 37.363 186.152-49.238 21.84 82.57-186.149 49.243Zm0 0"/></clipPath><clipPath id="K"><path d="m130.137 37.363 186.152-49.238 21.84 82.57-186.149 49.243Zm0 0"/></clipPath><clipPath id="L"><path d="M265 38h14v15h-14Zm0 0"/></clipPath><clipPath id="M"><path d="m130.137 37.363 186.152-49.238 21.84 82.57-186.149 49.243Zm0 0"/></clipPath><clipPath id="N"><path d="m130.137 37.363 186.152-49.238 21.84 82.57-186.149 49.243Zm0 0"/></clipPath><clipPath id="O"><path d="M273 48h16v14h-16Zm0 0"/></clipPath><clipPath id="P"><path d="m130.137 37.363 186.152-49.238 21.84 82.57-186.149 49.243Zm0 0"/></clipPath><clipPath id="Q"><path d="m130.137 37.363 186.152-49.238 21.84 82.57-186.149 49.243Zm0 0"/></clipPath><clipPath id="R"><path d="M279 61h17v12h-17Zm0 0"/></clipPath><clipPath id="S"><path d="m130.137 37.363 186.152-49.238 21.84 82.57-186.149 49.243Zm0 0"/></clipPath><clipPath id="T"><path d="m130.137 37.363 186.152-49.238 21.84 82.57-186.149 49.243Zm0 0"/></clipPath><clipPath id="U"><path d="M152 30h85v86h-85Zm0 0"/></clipPath><clipPath id="V"><path d="m130.137 37.363 186.152-49.238 21.84 82.57-186.149 49.243Zm0 0"/></clipPath><clipPath id="W"><path d="m130.137 37.363 186.152-49.238 21.84 82.57-186.149 49.243Zm0 0"/></clipPath></defs><g clip-path="url(#a)"><g clip-path="url(#b)"><g clip-path="url(#d)"><path fill="currentColor" d="M160.379 89.496a150 150 0 0 0-9.43 26.125l-.105.027c1.996-9.054 3.855-17.816 6.535-26.43Zm0 0"/></g></g></g><g clip-path="url(#e)"><g clip-path="url(#f)"><g clip-path="url(#g)"><path fill="currentColor" d="m172.3 57.938 5.606 3.667c-5.953 7.188-11.074 15.122-15.363 23.48l-3.691-.331a109 109 0 0 1 6.074-14.227 137 137 0 0 1 7.375-12.59m0 0"/></g></g></g><g clip-path="url(#h)"><g clip-path="url(#i)"><g clip-path="url(#j)"><path fill="currentColor" d="m197.078 30.219 5.031 9.773c-7.879 5.012-14.945 11.16-21.187 18.117l-6.027-3.949a126 126 0 0 1 18.343-20.648 106 106 0 0 1 3.84-3.293m0 0"/></g></g></g><g clip-path="url(#k)"><g clip-path="url(#l)"><g clip-path="url(#m)"><path fill="currentColor" d="M220.605 15.59a113 113 0 0 1 6.938-2.906l.633 16.238a75.3 75.3 0 0 0-14.395 4.777 89 89 0 0 0-7.73 3.922l-5.293-10.266a110 110 0 0 1 19.847-11.765m0 0"/></g></g></g><g clip-path="url(#n)"><g clip-path="url(#o)"><g clip-path="url(#p)"><path fill="currentColor" d="m261.863 5.934-7.281 22.132c-7.191-1.21-14.613-1.152-21.86-.007l-.663-16.977c9.617-3.172 19.71-5 29.804-5.148m0 0"/></g></g></g><g clip-path="url(#q)"><g clip-path="url(#r)"><g clip-path="url(#s)"><path fill="currentColor" d="m294.45 12.04-19.02 24.187a45 45 0 0 0-10.672-5.508 58 58 0 0 0-6.36-1.883l7.52-22.871a83 83 0 0 1 19.61 2.918q4.575 1.258 8.921 3.156m0 0"/></g></g></g><g clip-path="url(#t)"><g clip-path="url(#u)"><g clip-path="url(#v)"><path fill="currentColor" d="m321.324 33.3-30.21 21.114c-3.27-5.875-7.2-11.18-12.239-15.508l19.613-24.933c9.024 4.71 16.598 11.355 22.836 19.328m0 0"/></g></g></g><g clip-path="url(#w)"><g clip-path="url(#x)"><g clip-path="url(#y)"><path fill="currentColor" d="m333.793 54.617-36.648 12.828c-1.23-3.12-2.547-6.183-3.993-9.117l30.774-21.512c3.34 4.746 6.25 9.895 8.754 15.325.105.222.527 1.164 1.113 2.476m0 0"/></g></g></g><g clip-path="url(#z)"><g clip-path="url(#A)"><g clip-path="url(#B)"><path fill="currentColor" d="m225.46 90.953 28.376-44.18-24.375 46.508Zm0 0"/></g></g></g><g clip-path="url(#C)"><g clip-path="url(#D)"><g clip-path="url(#E)"><path fill="currentColor" d="M231.328 94.36q.032.638-.09 1.265-.118.627-.383 1.207a5.2 5.2 0 0 1-.66 1.082 5.4 5.4 0 0 1-1.977 1.555q-.579.264-1.206.383-.628.124-1.262.09a5.3 5.3 0 0 1-3.426-1.473 5 5 0 0 1-.804-.977 5.2 5.2 0 0 1-.551-1.14 5.2 5.2 0 0 1-.266-1.239 5.28 5.28 0 0 1 .977-3.597q.368-.52.855-.934a5.2 5.2 0 0 1 1.05-.707q.568-.292 1.188-.437a5.3 5.3 0 0 1 1.258-.145 5.3 5.3 0 0 1 2.441.605 5.3 5.3 0 0 1 1.895 1.66c.59.84.914 1.774.961 2.801m0 0"/></g></g></g><g clip-path="url(#F)"><g clip-path="url(#G)"><g clip-path="url(#H)"><path fill="currentColor" d="M243.176 29.98q3.736.095 7.437.645l-1.906 10.578a50 50 0 0 0-6.105-.922Zm0 0"/></g></g></g><g clip-path="url(#I)"><g clip-path="url(#J)"><g clip-path="url(#K)"><path fill="currentColor" d="M257.992 32.242a53.6 53.6 0 0 1 7.149 2.653l-5.102 10.43a42 42 0 0 0-5.488-2.446Zm0 0"/></g></g></g><g clip-path="url(#L)"><g clip-path="url(#M)"><g clip-path="url(#N)"><path fill="currentColor" d="M271.875 38.559a54 54 0 0 1 6.16 4.601l-8.426 9.207a42 42 0 0 0-4.52-3.855Zm0 0"/></g></g></g><g clip-path="url(#O)"><g clip-path="url(#P)"><g clip-path="url(#Q)"><path fill="currentColor" d="M283.488 48.578a60 60 0 0 1 4.672 6.055l-11.262 7.16a48 48 0 0 0-3.343-4.969Zm0 0"/></g></g></g><g clip-path="url(#R)"><g clip-path="url(#S)"><g clip-path="url(#T)"><path fill="currentColor" d="M292.043 61.168a72 72 0 0 1 3.125 6.887l-13.379 4.8a57 57 0 0 0-2.148-5.683Zm0 0"/></g></g></g><g clip-path="url(#U)"><g clip-path="url(#V)"><g clip-path="url(#W)"><path fill="currentColor" d="m232.191 30.563.004.011a59.5 59.5 0 0 0-8.222 1.61 66 66 0 0 0-7.82 2.695 72 72 0 0 0-7.34 3.601l-.446.25-.437.254-.875.516c-.582.348-1.153.707-1.727 1.059-.562.37-1.133.73-1.687 1.105l-.836.566-.414.286-.41.289a97.5 97.5 0 0 0-12.2 10.265 124 124 0 0 0-10.46 11.778 152 152 0 0 0-8.966 12.8 172 172 0 0 0-7.667 13.516 194 194 0 0 0-3.399 6.965q-1.63 3.51-3.113 7.078a205 205 0 0 0-3.922 10.07l.453-.12a212 212 0 0 1 4.563-9.442 224 224 0 0 1 3.628-6.766q1.876-3.345 3.887-6.61a175 175 0 0 1 8.555-12.655 147 147 0 0 1 9.656-11.727c3.39-3.71 7.008-7.191 10.844-10.441a90.4 90.4 0 0 1 12.074-8.649l.395-.238.402-.23.797-.454c.531-.304 1.074-.586 1.61-.883.542-.277 1.085-.562 1.628-.832l1.23-.597.415-.192a64 64 0 0 1 6.722-2.668 56 56 0 0 1 6.903-1.789q3.461-.648 6.976-.804l.004.011 3.332-.125-.512-9.87Zm0 0"/></g></g></g></svg>